<?xml version="1.0" encoding="UTF-8" standalone="no"?>
<!DOCTYPE svg PUBLIC "-//W3C//DTD SVG 1.1//EN" "http://www.w3.org/Graphics/SVG/1.1/DTD/svg11.dtd">
<svg xmlns="http://www.w3.org/2000/svg" xmlns:xlink="http://www.w3.org/1999/xlink" version="1.1" width="1189.9944pt" height="604.5861pt" viewBox="0 0 1189.9944 604.5861">
<g enable-background="new">
<path transform="matrix(2.0833333,0,0,-2.0833333,515.96737,-305.57225)" d="M -108.50525 -410.80793 L 217.01052 -410.80793 L 217.01052 -154.05297 L -108.50525 -154.05297 Z " fill="#ffffff"/>
<path transform="matrix(2.0833333,0,0,-2.0833333,515.96737,-305.57225)" stroke-width=".3985" stroke-linecap="butt" stroke-miterlimit="10" stroke-linejoin="miter" fill="none" stroke="#cbcbcb" d="M -108.50525 -410.80793 L -108.50525 -154.05297 M -92.17358 -410.80793 L -92.17358 -154.05297 M -82.62001 -410.80793 L -82.62001 -154.05297 M -75.84193 -410.80793 L -75.84193 -154.05297 M -70.58429 -410.80793 L -70.58429 -154.05297 M -66.28835 -410.80793 L -66.28835 -154.05297 M -62.65645 -410.80793 L -62.65645 -154.05297 M -59.51027 -410.80793 L -59.51027 -154.05297 M -56.7351 -410.80793 L -56.7351 -154.05297 M -54.25261 -410.80793 L -54.25261 -154.05297 M -37.92096 -410.80793 L -37.92096 -154.05297 M -28.36737 -410.80793 L -28.36737 -154.05297 M -21.5893 -410.80793 L -21.5893 -154.05297 M -16.33165 -410.80793 L -16.33165 -154.05297 M -12.03572 -410.80793 L -12.03572 -154.05297 M -8.40381 -410.80793 L -8.40381 -154.05297 M -5.25764 -410.80793 L -5.25764 -154.05297 M -2.4825 -410.80793 L -2.4825 -154.05297 M 0 -410.80793 L 0 -154.05297 M 16.33165 -410.80793 L 16.33165 -154.05297 M 25.88524 -410.80793 L 25.88524 -154.05297 M 32.6633 -410.80793 L 32.6633 -154.05297 M 37.92096 -410.80793 L 37.92096 -154.05297 M 42.21689 -410.80793 L 42.21689 -154.05297 M 45.84879 -410.80793 L 45.84879 -154.05297 M 48.99496 -410.80793 L 48.99496 -154.05297 M 51.77011 -410.80793 L 51.77011 -154.05297 M 54.25261 -410.80793 L 54.25261 -154.05297 M 70.58429 -410.80793 L 70.58429 -154.05297 M 80.13786 -410.80793 L 80.13786 -154.05297 M 86.91594 -410.80793 L 86.91594 -154.05297 M 92.17358 -410.80793 L 92.17358 -154.05297 M 96.46953 -410.80793 L 96.46953 -154.05297 M 100.10141 -410.80793 L 100.10141 -154.05297 M 103.24759 -410.80793 L 103.24759 -154.05297 M 106.02275 -410.80793 L 106.02275 -154.05297 M 108.50525 -410.80793 L 108.50525 -154.05297 M 124.8369 -410.80793 L 124.8369 -154.05297 M 134.3905 -410.80793 L 134.3905 -154.05297 M 141.16858 -410.80793 L 141.16858 -154.05297 M 146.42623 -410.80793 L 146.42623 -154.05297 M 150.72216 -410.80793 L 150.72216 -154.05297 M 154.35405 -410.80793 L 154.35405 -154.05297 M 157.50023 -410.80793 L 157.50023 -154.05297 M 160.27538 -410.80793 L 160.27538 -154.05297 M 162.75788 -410.80793 L 162.75788 -154.05297 M 179.08954 -410.80793 L 179.08954 -154.05297 M 188.64313 -410.80793 L 188.64313 -154.05297 M 195.4212 -410.80793 L 195.4212 -154.05297 M 200.67887 -410.80793 L 200.67887 -154.05297 M 204.9748 -410.80793 L 204.9748 -154.05297 M 208.60668 -410.80793 L 208.60668 -154.05297 M 211.75287 -410.80793 L 211.75287 -154.05297 M 214.52802 -410.80793 L 214.52802 -154.05297 "/>
<path transform="matrix(2.0833333,0,0,-2.0833333,515.96737,-305.57225)" stroke-width=".3985" stroke-linecap="butt" stroke-miterlimit="10" stroke-linejoin="miter" fill="none" stroke="#cbcbcb" d="M -108.50525 -410.80793 L -108.50525 -154.05297 M -54.25261 -410.80793 L -54.25261 -154.05297 M 0 -410.80793 L 0 -154.05297 M 54.25261 -410.80793 L 54.25261 -154.05297 M 108.50525 -410.80793 L 108.50525 -154.05297 M 162.75788 -410.80793 L 162.75788 -154.05297 M 217.01052 -410.80793 L 217.01052 -154.05297 "/>
<path transform="matrix(2.0833333,0,0,-2.0833333,515.96737,-305.57225)" stroke-width=".3985" stroke-linecap="butt" stroke-miterlimit="10" stroke-linejoin="miter" fill="none" stroke="#cbcbcb" d="M -108.50525 -410.80793 L 217.01052 -410.80793 M -108.50525 -395.34977 L 217.01052 -395.34977 M -108.50525 -386.3071 L 217.01052 -386.3071 M -108.50525 -379.89158 L 217.01052 -379.89158 M -108.50525 -374.9151 L 217.01052 -374.9151 M -108.50525 -370.84895 L 217.01052 -370.84895 M -108.50525 -367.4113 L 217.01052 -367.4113 M -108.50525 -364.43339 L 217.01052 -364.43339 M -108.50525 -361.80668 L 217.01052 -361.80668 M -108.50525 -359.4569 L 217.01052 -359.4569 M -108.50525 -343.99876 L 217.01052 -343.99876 M -108.50525 -334.95613 L 217.01052 -334.95613 M -108.50525 -328.54057 L 217.01052 -328.54057 M -108.50525 -323.56413 L 217.01052 -323.56413 M -108.50525 -319.49797 L 217.01052 -319.49797 M -108.50525 -316.0603 L 217.01052 -316.0603 M -108.50525 -313.0824 L 217.01052 -313.0824 M -108.50525 -310.45567 L 217.01052 -310.45567 M -108.50525 -308.10594 L 217.01052 -308.10594 M -108.50525 -292.64778 L 217.01052 -292.64778 M -108.50525 -283.60514 L 217.01052 -283.60514 M -108.50525 -277.18959 L 217.01052 -277.18959 M -108.50525 -272.21315 L 217.01052 -272.21315 M -108.50525 -268.14698 L 217.01052 -268.14698 M -108.50525 -264.7093 L 217.01052 -264.7093 M -108.50525 -261.7314 L 217.01052 -261.7314 M -108.50525 -259.10469 L 217.01052 -259.10469 M -108.50525 -256.75495 L 217.01052 -256.75495 M -108.50525 -241.29677 L 217.01052 -241.29677 M -108.50525 -232.25415 L 217.01052 -232.25415 M -108.50525 -225.8386 L 217.01052 -225.8386 M -108.50525 -220.86214 L 217.01052 -220.86214 M -108.50525 -216.79598 L 217.01052 -216.79598 M -108.50525 -213.35832 L 217.01052 -213.35832 M -108.50525 -210.38042 L 217.01052 -210.38042 M -108.50525 -207.75368 L 217.01052 -207.75368 M -108.50525 -205.40396 L 217.01052 -205.40396 M -108.50525 -189.94579 L 217.01052 -189.94579 M -108.50525 -180.90316 L 217.01052 -180.90316 M -108.50525 -174.4876 L 217.01052 -174.4876 M -108.50525 -169.51114 L 217.01052 -169.51114 M -108.50525 -165.44498 L 217.01052 -165.44498 M -108.50525 -162.00733 L 217.01052 -162.00733 M -108.50525 -159.02942 L 217.01052 -159.02942 M -108.50525 -156.4027 L 217.01052 -156.4027 "/>
<path transform="matrix(2.0833333,0,0,-2.0833333,515.96737,-305.57225)" stroke-width=".3985" stroke-linecap="butt" stroke-miterlimit="10" stroke-linejoin="miter" fill="none" stroke="#cbcbcb" d="M -108.50525 -410.80793 L 217.01052 -410.80793 M -108.50525 -359.4569 L 217.01052 -359.4569 M -108.50525 -308.10594 L 217.01052 -308.10594 M -108.50525 -256.75495 L 217.01052 -256.75495 M -108.50525 -205.40396 L 217.01052 -205.40396 M -108.50525 -154.05297 L 217.01052 -154.05297 "/>
<path transform="matrix(2.0833333,0,0,-2.0833333,515.96737,-305.57225)" stroke-width=".19925" stroke-linecap="butt" stroke-miterlimit="10" stroke-linejoin="miter" fill="none" stroke="#929292" d="M -108.50525 -410.80793 L -108.50525 -407.9777 M -92.17358 -410.80793 L -92.17358 -407.9777 M -82.62001 -410.80793 L -82.62001 -407.9777 M -75.84193 -410.80793 L -75.84193 -407.9777 M -70.58429 -410.80793 L -70.58429 -407.9777 M -66.28835 -410.80793 L -66.28835 -407.9777 M -62.65645 -410.80793 L -62.65645 -407.9777 M -59.51027 -410.80793 L -59.51027 -407.9777 M -56.7351 -410.80793 L -56.7351 -407.9777 M -54.25261 -410.80793 L -54.25261 -407.9777 M -37.92096 -410.80793 L -37.92096 -407.9777 M -28.36737 -410.80793 L -28.36737 -407.9777 M -21.5893 -410.80793 L -21.5893 -407.9777 M -16.33165 -410.80793 L -16.33165 -407.9777 M -12.03572 -410.80793 L -12.03572 -407.9777 M -8.40381 -410.80793 L -8.40381 -407.9777 M -5.25764 -410.80793 L -5.25764 -407.9777 M -2.4825 -410.80793 L -2.4825 -407.9777 M 0 -410.80793 L 0 -407.9777 M 16.33165 -410.80793 L 16.33165 -407.9777 M 25.88524 -410.80793 L 25.88524 -407.9777 M 32.6633 -410.80793 L 32.6633 -407.9777 M 37.92096 -410.80793 L 37.92096 -407.9777 M 42.21689 -410.80793 L 42.21689 -407.9777 M 45.84879 -410.80793 L 45.84879 -407.9777 M 48.99496 -410.80793 L 48.99496 -407.9777 M 51.77011 -410.80793 L 51.77011 -407.9777 M 54.25261 -410.80793 L 54.25261 -407.9777 M 70.58429 -410.80793 L 70.58429 -407.9777 M 80.13786 -410.80793 L 80.13786 -407.9777 M 86.91594 -410.80793 L 86.91594 -407.9777 M 92.17358 -410.80793 L 92.17358 -407.9777 M 96.46953 -410.80793 L 96.46953 -407.9777 M 100.10141 -410.80793 L 100.10141 -407.9777 M 103.24759 -410.80793 L 103.24759 -407.9777 M 106.02275 -410.80793 L 106.02275 -407.9777 M 108.50525 -410.80793 L 108.50525 -407.9777 M 124.8369 -410.80793 L 124.8369 -407.9777 M 134.3905 -410.80793 L 134.3905 -407.9777 M 141.16858 -410.80793 L 141.16858 -407.9777 M 146.42623 -410.80793 L 146.42623 -407.9777 M 150.72216 -410.80793 L 150.72216 -407.9777 M 154.35405 -410.80793 L 154.35405 -407.9777 M 157.50023 -410.80793 L 157.50023 -407.9777 M 160.27538 -410.80793 L 160.27538 -407.9777 M 162.75788 -410.80793 L 162.75788 -407.9777 M 179.08954 -410.80793 L 179.08954 -407.9777 M 188.64313 -410.80793 L 188.64313 -407.9777 M 195.4212 -410.80793 L 195.4212 -407.9777 M 200.67887 -410.80793 L 200.67887 -407.9777 M 204.9748 -410.80793 L 204.9748 -407.9777 M 208.60668 -410.80793 L 208.60668 -407.9777 M 211.75287 -410.80793 L 211.75287 -407.9777 M 214.52802 -410.80793 L 214.52802 -407.9777 M -108.50525 -154.05297 L -108.50525 -156.88318 M -92.17358 -154.05297 L -92.17358 -156.88318 M -82.62001 -154.05297 L -82.62001 -156.88318 M -75.84193 -154.05297 L -75.84193 -156.88318 M -70.58429 -154.05297 L -70.58429 -156.88318 M -66.28835 -154.05297 L -66.28835 -156.88318 M -62.65645 -154.05297 L -62.65645 -156.88318 M -59.51027 -154.05297 L -59.51027 -156.88318 M -56.7351 -154.05297 L -56.7351 -156.88318 M -54.25261 -154.05297 L -54.25261 -156.88318 M -37.92096 -154.05297 L -37.92096 -156.88318 M -28.36737 -154.05297 L -28.36737 -156.88318 M -21.5893 -154.05297 L -21.5893 -156.88318 M -16.33165 -154.05297 L -16.33165 -156.88318 M -12.03572 -154.05297 L -12.03572 -156.88318 M -8.40381 -154.05297 L -8.40381 -156.88318 M -5.25764 -154.05297 L -5.25764 -156.88318 M -2.4825 -154.05297 L -2.4825 -156.88318 M 0 -154.05297 L 0 -156.88318 M 16.33165 -154.05297 L 16.33165 -156.88318 M 25.88524 -154.05297 L 25.88524 -156.88318 M 32.6633 -154.05297 L 32.6633 -156.88318 M 37.92096 -154.05297 L 37.92096 -156.88318 M 42.21689 -154.05297 L 42.21689 -156.88318 M 45.84879 -154.05297 L 45.84879 -156.88318 M 48.99496 -154.05297 L 48.99496 -156.88318 M 51.77011 -154.05297 L 51.77011 -156.88318 M 54.25261 -154.05297 L 54.25261 -156.88318 M 70.58429 -154.05297 L 70.58429 -156.88318 M 80.13786 -154.05297 L 80.13786 -156.88318 M 86.91594 -154.05297 L 86.91594 -156.88318 M 92.17358 -154.05297 L 92.17358 -156.88318 M 96.46953 -154.05297 L 96.46953 -156.88318 M 100.10141 -154.05297 L 100.10141 -156.88318 M 103.24759 -154.05297 L 103.24759 -156.88318 M 106.02275 -154.05297 L 106.02275 -156.88318 M 108.50525 -154.05297 L 108.50525 -156.88318 M 124.8369 -154.05297 L 124.8369 -156.88318 M 134.3905 -154.05297 L 134.3905 -156.88318 M 141.16858 -154.05297 L 141.16858 -156.88318 M 146.42623 -154.05297 L 146.42623 -156.88318 M 150.72216 -154.05297 L 150.72216 -156.88318 M 154.35405 -154.05297 L 154.35405 -156.88318 M 157.50023 -154.05297 L 157.50023 -156.88318 M 160.27538 -154.05297 L 160.27538 -156.88318 M 162.75788 -154.05297 L 162.75788 -156.88318 M 179.08954 -154.05297 L 179.08954 -156.88318 M 188.64313 -154.05297 L 188.64313 -156.88318 M 195.4212 -154.05297 L 195.4212 -156.88318 M 200.67887 -154.05297 L 200.67887 -156.88318 M 204.9748 -154.05297 L 204.9748 -156.88318 M 208.60668 -154.05297 L 208.60668 -156.88318 M 211.75287 -154.05297 L 211.75287 -156.88318 M 214.52802 -154.05297 L 214.52802 -156.88318 "/>
<path transform="matrix(2.0833333,0,0,-2.0833333,515.96737,-305.57225)" stroke-width=".19925" stroke-linecap="butt" stroke-miterlimit="10" stroke-linejoin="miter" fill="none" stroke="#929292" d="M -108.50525 -410.80793 L -108.50525 -406.5631 M -54.25261 -410.80793 L -54.25261 -406.5631 M 0 -410.80793 L 0 -406.5631 M 54.25261 -410.80793 L 54.25261 -406.5631 M 108.50525 -410.80793 L 108.50525 -406.5631 M 162.75788 -410.80793 L 162.75788 -406.5631 M 217.01052 -410.80793 L 217.01052 -406.5631 M -108.50525 -154.05297 L -108.50525 -158.29778 M -54.25261 -154.05297 L -54.25261 -158.29778 M 0 -154.05297 L 0 -158.29778 M 54.25261 -154.05297 L 54.25261 -158.29778 M 108.50525 -154.05297 L 108.50525 -158.29778 M 162.75788 -154.05297 L 162.75788 -158.29778 M 217.01052 -154.05297 L 217.01052 -158.29778 "/>
<path transform="matrix(2.0833333,0,0,-2.0833333,515.96737,-305.57225)" stroke-width=".19925" stroke-linecap="butt" stroke-miterlimit="10" stroke-linejoin="miter" fill="none" stroke="#929292" d="M -108.50525 -410.80793 L -105.67581 -410.80793 M -108.50525 -395.34977 L -105.67581 -395.34977 M -108.50525 -386.3071 L -105.67581 -386.3071 M -108.50525 -379.89158 L -105.67581 -379.89158 M -108.50525 -374.9151 L -105.67581 -374.9151 M -108.50525 -370.84895 L -105.67581 -370.84895 M -108.50525 -367.4113 L -105.67581 -367.4113 M -108.50525 -364.43339 L -105.67581 -364.43339 M -108.50525 -361.80668 L -105.67581 -361.80668 M -108.50525 -359.4569 L -105.67581 -359.4569 M -108.50525 -343.99876 L -105.67581 -343.99876 M -108.50525 -334.95613 L -105.67581 -334.95613 M -108.50525 -328.54057 L -105.67581 -328.54057 M -108.50525 -323.56413 L -105.67581 -323.56413 M -108.50525 -319.49797 L -105.67581 -319.49797 M -108.50525 -316.0603 L -105.67581 -316.0603 M -108.50525 -313.0824 L -105.67581 -313.0824 M -108.50525 -310.45567 L -105.67581 -310.45567 M -108.50525 -308.10594 L -105.67581 -308.10594 M -108.50525 -292.64778 L -105.67581 -292.64778 M -108.50525 -283.60514 L -105.67581 -283.60514 M -108.50525 -277.18959 L -105.67581 -277.18959 M -108.50525 -272.21315 L -105.67581 -272.21315 M -108.50525 -268.14698 L -105.67581 -268.14698 M -108.50525 -264.7093 L -105.67581 -264.7093 M -108.50525 -261.7314 L -105.67581 -261.7314 M -108.50525 -259.10469 L -105.67581 -259.10469 M -108.50525 -256.75495 L -105.67581 -256.75495 M -108.50525 -241.29677 L -105.67581 -241.29677 M -108.50525 -232.25415 L -105.67581 -232.25415 M -108.50525 -225.8386 L -105.67581 -225.8386 M -108.50525 -220.86214 L -105.67581 -220.86214 M -108.50525 -216.79598 L -105.67581 -216.79598 M -108.50525 -213.35832 L -105.67581 -213.35832 M -108.50525 -210.38042 L -105.67581 -210.38042 M -108.50525 -207.75368 L -105.67581 -207.75368 M -108.50525 -205.40396 L -105.67581 -205.40396 M -108.50525 -189.94579 L -105.67581 -189.94579 M -108.50525 -180.90316 L -105.67581 -180.90316 M -108.50525 -174.4876 L -105.67581 -174.4876 M -108.50525 -169.51114 L -105.67581 -169.51114 M -108.50525 -165.44498 L -105.67581 -165.44498 M -108.50525 -162.00733 L -105.67581 -162.00733 M -108.50525 -159.02942 L -105.67581 -159.02942 M -108.50525 -156.4027 L -105.67581 -156.4027 M 217.01052 -410.80793 L 214.18108 -410.80793 M 217.01052 -395.34977 L 214.18108 -395.34977 M 217.01052 -386.3071 L 214.18108 -386.3071 M 217.01052 -379.89158 L 214.18108 -379.89158 M 217.01052 -374.9151 L 214.18108 -374.9151 M 217.01052 -370.84895 L 214.18108 -370.84895 M 217.01052 -367.4113 L 214.18108 -367.4113 M 217.01052 -364.43339 L 214.18108 -364.43339 M 217.01052 -361.80668 L 214.18108 -361.80668 M 217.01052 -359.4569 L 214.18108 -359.4569 M 217.01052 -343.99876 L 214.18108 -343.99876 M 217.01052 -334.95613 L 214.18108 -334.95613 M 217.01052 -328.54057 L 214.18108 -328.54057 M 217.01052 -323.56413 L 214.18108 -323.56413 M 217.01052 -319.49797 L 214.18108 -319.49797 M 217.01052 -316.0603 L 214.18108 -316.0603 M 217.01052 -313.0824 L 214.18108 -313.0824 M 217.01052 -310.45567 L 214.18108 -310.45567 M 217.01052 -308.10594 L 214.18108 -308.10594 M 217.01052 -292.64778 L 214.18108 -292.64778 M 217.01052 -283.60514 L 214.18108 -283.60514 M 217.01052 -277.18959 L 214.18108 -277.18959 M 217.01052 -272.21315 L 214.18108 -272.21315 M 217.01052 -268.14698 L 214.18108 -268.14698 M 217.01052 -264.7093 L 214.18108 -264.7093 M 217.01052 -261.7314 L 214.18108 -261.7314 M 217.01052 -259.10469 L 214.18108 -259.10469 M 217.01052 -256.75495 L 214.18108 -256.75495 M 217.01052 -241.29677 L 214.18108 -241.29677 M 217.01052 -232.25415 L 214.18108 -232.25415 M 217.01052 -225.8386 L 214.18108 -225.8386 M 217.01052 -220.86214 L 214.18108 -220.86214 M 217.01052 -216.79598 L 214.18108 -216.79598 M 217.01052 -213.35832 L 214.18108 -213.35832 M 217.01052 -210.38042 L 214.18108 -210.38042 M 217.01052 -207.75368 L 214.18108 -207.75368 M 217.01052 -205.40396 L 214.18108 -205.40396 M 217.01052 -189.94579 L 214.18108 -189.94579 M 217.01052 -180.90316 L 214.18108 -180.90316 M 217.01052 -174.4876 L 214.18108 -174.4876 M 217.01052 -169.51114 L 214.18108 -169.51114 M 217.01052 -165.44498 L 214.18108 -165.44498 M 217.01052 -162.00733 L 214.18108 -162.00733 M 217.01052 -159.02942 L 214.18108 -159.02942 M 217.01052 -156.4027 L 214.18108 -156.4027 "/>
<path transform="matrix(2.0833333,0,0,-2.0833333,515.96737,-305.57225)" stroke-width=".19925" stroke-linecap="butt" stroke-miterlimit="10" stroke-linejoin="miter" fill="none" stroke="#929292" d="M -108.50525 -410.80793 L -104.26146 -410.80793 M -108.50525 -359.4569 L -104.26146 -359.4569 M -108.50525 -308.10594 L -104.26146 -308.10594 M -108.50525 -256.75495 L -104.26146 -256.75495 M -108.50525 -205.40396 L -104.26146 -205.40396 M -108.50525 -154.05297 L -104.26146 -154.05297 M 217.01052 -410.80793 L 212.76671 -410.80793 M 217.01052 -359.4569 L 212.76671 -359.4569 M 217.01052 -308.10594 L 212.76671 -308.10594 M 217.01052 -256.75495 L 212.76671 -256.75495 M 217.01052 -205.40396 L 212.76671 -205.40396 M 217.01052 -154.05297 L 212.76671 -154.05297 "/>
<path transform="matrix(2.0833333,0,0,-2.0833333,515.96737,-305.57225)" stroke-width=".3985" stroke-linecap="butt" stroke-miterlimit="10" stroke-linejoin="miter" fill="none" stroke="#000000" d="M -108.50525 -410.80793 L -108.50525 -154.05297 L 217.01052 -154.05297 L 217.01052 -410.80793 L -108.50525 -410.80793 Z "/>
<symbol id="font_0_4">
<path d="M .205 .64000007 C .205 .66400006 .205 .666 .18200003 .666 C .120000008 .60200008 .032000007 .60200008 0 .60200008 L 0 .57100006 C .020000004 .57100006 .07900001 .57100006 .13100001 .597 L .13100001 .079 C .13100001 .043 .128 .031000002 .038000004 .031000002 L .0060000049 .031000002 L .0060000049 0 C .04100001 .003 .128 .003 .168 .003 C .20800002 .003 .29500003 .003 .33000005 0 L .33000005 .031000002 L .29800005 .031000002 C .20800002 .031000002 .205 .042000005 .205 .079 L .205 .64000007 Z "/>
</symbol>
<symbol id="font_0_3">
<path d="M .421 .34200005 C .421 .42200003 .416 .50200006 .381 .57600006 C .335 .67200008 .25300003 .688 .211 .688 C .15100001 .688 .07800001 .66200008 .037000006 .56900009 C .0050000029 .5 0 .42200003 0 .34200005 C 0 .26700003 .0040000008 .177 .045000007 .101 C .088 .020000002 .161 0 .21000001 0 C .264 0 .34 .021000002 .384 .116000007 C .416 .185 .421 .263 .421 .34200005 M .21000001 .022000002 C .171 .022000002 .112 .047000003 .094 .143 C .083000008 .20300001 .083000008 .29500003 .083000008 .35400004 C .083000008 .41800005 .083000008 .48400004 .091000009 .53800007 C .11 .65700009 .185 .66600009 .21000001 .66600009 C .243 .66600009 .30900003 .64800009 .328 .549 C .338 .49300004 .338 .41700004 .338 .35400004 C .338 .279 .338 .21100001 .32700003 .147 C .312 .052 .255 .022000002 .21000001 .022000002 Z "/>
</symbol>
<use xlink:href="#font_0_4" transform="matrix(20.755415,0,0,-20.755415,270.24586,574.49447)"/>
<use xlink:href="#font_0_3" transform="matrix(20.755415,0,0,-20.755415,279.5858,574.95108)"/>
<symbol id="font_1_1">
<path d="M .63600006 0 C .65200009 0 .67600008 0 .67600008 .023999989 C .67600008 .048999996 .65300008 .048999996 .63600006 .048999996 L .04 .048999996 C .023999997 .048999996 0 .048999996 0 .025000006 C 0 0 .02300001 0 .04 0 L .63600006 0 Z "/>
</symbol>
<use xlink:href="#font_1_1" transform="matrix(14.528749,0,0,-14.528749,290.7219,563.6776)"/>
<symbol id="font_2_3">
<path d="M .442 .18200001 L .40800003 .18200001 C .40500004 .16000001 .39500005 .101 .38200004 .091000009 C .374 .085 .29700003 .085 .28300003 .085 L .099 .085 C .20400003 .178 .23900002 .20600002 .29900003 .25300003 C .37300004 .312 .442 .374 .442 .469 C .442 .59000006 .33600004 .66400006 .20800004 .66400006 C .084 .66400006 0 .577 0 .485 C 0 .43400003 .043000007 .42900003 .053000004 .42900003 C .077 .42900003 .10600001 .446 .10600001 .48200003 C .10600001 .5 .099 .535 .047000007 .535 C .078 .606 .146 .628 .19300002 .628 C .293 .628 .34500004 .55 .34500004 .469 C .34500004 .38200004 .28300003 .31300003 .25100003 .277 L .010000005 .039 C 0 .030000002 0 .028 0 0 L .41200004 0 L .442 .18200001 Z "/>
</symbol>
<use xlink:href="#font_2_3" transform="matrix(14.528749,0,0,-14.528749,303.04103,566.9611)"/>
<use xlink:href="#font_0_4" transform="matrix(20.755415,0,0,-20.755415,383.2708,574.49447)"/>
<use xlink:href="#font_0_3" transform="matrix(20.755415,0,0,-20.755415,392.61076,574.95108)"/>
<use xlink:href="#font_1_1" transform="matrix(14.528749,0,0,-14.528749,403.74687,563.6776)"/>
<symbol id="font_2_2">
<path d="M .22600001 .63600006 C .22600001 .66300007 .224 .66400006 .19600001 .66400006 C .132 .601 .041 .6 0 .6 L 0 .564 C .023999997 .564 .09000001 .564 .14500001 .592 L .14500001 .082 C .14500001 .049000004 .14500001 .036000004 .04500001 .036000004 L .0069999995 .036000004 L .0069999995 0 C .024999999 .001 .148 .004 .185 .004 C .21600002 .004 .34200005 .001 .36400003 0 L .36400003 .036000004 L .32600004 .036000004 C .22600001 .036000004 .22600001 .049000004 .22600001 .082 L .22600001 .63600006 Z "/>
</symbol>
<use xlink:href="#font_2_2" transform="matrix(14.528749,0,0,-14.528749,416.73435,566.9611)"/>
<use xlink:href="#font_0_4" transform="matrix(20.755415,0,0,-20.755415,502.78126,574.49447)"/>
<use xlink:href="#font_0_3" transform="matrix(20.755415,0,0,-20.755415,512.12118,574.95108)"/>
<symbol id="font_2_1">
<path d="M .46400006 .33900003 C .46400006 .44900004 .45100004 .528 .40500004 .598 C .374 .644 .31200005 .684 .23200001 .684 C 0 .684 0 .41100005 0 .33900003 C 0 .26700003 0 0 .23200001 0 C .46400006 0 .46400006 .26700003 .46400006 .33900003 M .23200001 .028 C .186 .028 .125 .055 .105000007 .13700001 C .091000009 .19600001 .091000009 .27800004 .091000009 .35200004 C .091000009 .42500005 .091000009 .50100007 .106000009 .556 C .127 .635 .19100002 .656 .23200001 .656 C .286 .656 .338 .623 .356 .565 C .37200005 .51100006 .37300004 .43900005 .37300004 .35200004 C .37300004 .27800004 .37300004 .20400001 .36 .141 C .34000004 .050000006 .272 .028 .23200001 .028 Z "/>
</symbol>
<use xlink:href="#font_2_1" transform="matrix(14.528749,0,0,-14.528749,522.4458,567.2517)"/>
<use xlink:href="#font_0_4" transform="matrix(20.755415,0,0,-20.755415,615.8063,574.49447)"/>
<use xlink:href="#font_0_3" transform="matrix(20.755415,0,0,-20.755415,625.14627,574.95108)"/>
<use xlink:href="#font_2_2" transform="matrix(14.528749,0,0,-14.528749,636.2969,566.9611)"/>
<use xlink:href="#font_0_4" transform="matrix(20.755415,0,0,-20.755415,728.83126,574.49447)"/>
<use xlink:href="#font_0_3" transform="matrix(20.755415,0,0,-20.755415,738.1712,574.95108)"/>
<use xlink:href="#font_2_3" transform="matrix(14.528749,0,0,-14.528749,748.6535,566.9611)"/>
<use xlink:href="#font_0_4" transform="matrix(20.755415,0,0,-20.755415,841.85629,574.49447)"/>
<use xlink:href="#font_0_3" transform="matrix(20.755415,0,0,-20.755415,851.1962,574.95108)"/>
<symbol id="font_2_4">
<path d="M .219 .35400004 C .29700003 .35400004 .35300002 .3 .35300002 .193 C .35300002 .069000009 .28100003 .032 .223 .032 C .18300002 .032 .095 .043000007 .053000008 .102000009 C .10000001 .10400001 .111 .13700001 .111 .158 C .111 .19 .087 .213 .056000007 .213 C .028 .213 0 .19600001 0 .155 C 0 .061000006 .104 0 .22500001 0 C .36400003 0 .46 .09300001 .46 .193 C .46 .27100004 .39600004 .34900005 .286 .37200005 C .39100004 .41000004 .42900003 .48500005 .42900003 .546 C .42900003 .625 .33800004 .684 .22700002 .684 C .116 .684 .031 .63 .031 .55 C .031 .51600006 .053000008 .49700005 .083000008 .49700005 C .11400001 .49700005 .134 .52 .134 .548 C .134 .577 .11400001 .598 .083000008 .6 C .118 .644 .187 .65500006 .22400002 .65500006 C .26900003 .65500006 .33200003 .633 .33200003 .546 C .33200003 .504 .31800003 .45800004 .29200004 .42700003 C .25900004 .38900004 .23100002 .38700003 .18100001 .38400004 C .156 .38200004 .154 .38200004 .149 .38100005 C .147 .38100005 .139 .37900005 .139 .36800004 C .139 .35400004 .148 .35400004 .165 .35400004 L .219 .35400004 Z "/>
</symbol>
<use xlink:href="#font_2_4" transform="matrix(14.528749,0,0,-14.528749,861.5478,567.2517)"/>
<use xlink:href="#font_0_4" transform="matrix(20.755415,0,0,-20.755415,954.8813,574.49447)"/>
<use xlink:href="#font_0_3" transform="matrix(20.755415,0,0,-20.755415,964.22128,574.95108)"/>
<symbol id="font_2_5">
<path d="M .49000005 .164 L .49000005 .2 L .379 .2 L .379 .646 C .379 .66700008 .379 .674 .35700003 .674 C .345 .674 .34100003 .674 .331 .66 L 0 .2 L 0 .164 L .294 .164 L .294 .082 C .294 .048 .294 .036000004 .213 .036000004 L .186 .036000004 L .186 0 C .236 .002 .3 .004 .33600004 .004 C .37300004 .004 .437 .002 .48700003 0 L .48700003 .036000004 L .46 .036000004 C .379 .036000004 .379 .048 .379 .082 L .379 .164 L .49000005 .164 M .301 .56600007 L .301 .2 L .037000006 .2 L .301 .56600007 Z "/>
</symbol>
<use xlink:href="#font_2_5" transform="matrix(14.528749,0,0,-14.528749,974.3549,566.9611)"/>
<use xlink:href="#font_0_4" transform="matrix(20.755415,0,0,-20.755415,241.39376,558.7132)"/>
<use xlink:href="#font_0_3" transform="matrix(20.755415,0,0,-20.755415,250.73369,559.1698)"/>
<use xlink:href="#font_1_1" transform="matrix(14.528749,0,0,-14.528749,261.86979,547.89846)"/>
<symbol id="font_2_9">
<path d="M .30100004 .38100005 C .37900005 .41900004 .42900003 .46600003 .42900003 .535 C .42900003 .632 .32800005 .684 .23100002 .684 C .12100001 .684 .031 .612 .031 .517 C .031 .47000004 .053000008 .43600003 .070999998 .41600005 C .089 .39500005 .096 .39100004 .155 .35600005 C .09900001 .33200003 0 .27800004 0 .17300001 C 0 .062000008 .11500001 0 .22900002 0 C .35600005 0 .46 .08100001 .46 .18900001 C .46 .25500003 .42100004 .31100003 .36300005 .34500004 C .35000003 .35300002 .31500004 .37300004 .30100004 .38100005 M .138 .47600005 C .112 .49100004 .08400001 .518 .08400001 .555 C .08400001 .61800006 .157 .65500006 .22900002 .65500006 C .30700005 .65500006 .37600003 .606 .37600003 .535 C .37600003 .44600005 .272 .40100003 .27 .40100003 C .26800005 .40100003 .26600004 .40200005 .25900004 .40600003 L .138 .47600005 M .187 .337 L .32400004 .25800003 C .35000003 .243 .40000005 .213 .40000005 .154 C .40000005 .079 .31700004 .032 .23100002 .032 C .139 .032 .060000007 .091000009 .060000007 .17300001 C .060000007 .24700001 .11500001 .30400003 .187 .337 Z "/>
</symbol>
<use xlink:href="#font_2_9" transform="matrix(14.528749,0,0,-14.528749,274.05815,551.47256)"/>
<use xlink:href="#font_0_4" transform="matrix(20.755415,0,0,-20.755415,241.39376,451.73399)"/>
<use xlink:href="#font_0_3" transform="matrix(20.755415,0,0,-20.755415,250.73369,452.19059)"/>
<use xlink:href="#font_1_1" transform="matrix(14.528749,0,0,-14.528749,261.86979,440.91716)"/>
<symbol id="font_2_8">
<path d="M .46500004 .624 C .47500003 .63600006 .47500003 .638 .47500003 .66400006 L .21300003 .66400006 C .17300001 .66400006 .162 .665 .12600002 .668 C .07400001 .672 .072000008 .679 .06900001 .69600006 L .035000005 .69600006 L 0 .48200003 L .034 .48200003 C .036000007 .49700005 .046000005 .563 .062 .573 C .07 .579 .15100003 .579 .16600001 .579 L .38400004 .579 C .35200004 .537 .30100004 .47500003 .28000004 .44700004 C .14900002 .27500005 .13700003 .116000007 .13700003 .057000005 C .13700003 .046000005 .13700003 0 .18400002 0 C .23200003 0 .23200003 .045 .23200003 .058000007 L .23200003 .098000008 C .23200003 .29200004 .272 .38100005 .31500004 .43500004 L .46500004 .624 Z "/>
</symbol>
<use xlink:href="#font_2_8" transform="matrix(14.528749,0,0,-14.528749,274.2906,444.49125)"/>
<use xlink:href="#font_0_4" transform="matrix(20.755415,0,0,-20.755415,241.39376,344.75489)"/>
<use xlink:href="#font_0_3" transform="matrix(20.755415,0,0,-20.755415,250.73369,345.2115)"/>
<use xlink:href="#font_1_1" transform="matrix(14.528749,0,0,-14.528749,261.86979,333.93803)"/>
<symbol id="font_2_7">
<path d="M .096 .34700004 C .096 .42900003 .103 .503 .141 .564 C .17500001 .61800006 .22900002 .65500006 .293 .65500006 C .323 .65500006 .36300005 .647 .38300003 .62 C .35800005 .61800006 .33700005 .601 .33700005 .572 C .33700005 .547 .35400004 .525 .38400004 .525 C .41400004 .525 .43200005 .545 .43200005 .574 C .43200005 .632 .39000006 .684 .29100005 .684 C .147 .684 0 .552 0 .337 C 0 .078 .12200001 0 .23200001 0 C .35400004 0 .46 .09300001 .46 .224 C .46 .35100005 .35900004 .44500003 .242 .44500003 C .162 .44500003 .118 .39200003 .096 .34700004 M .23200001 .032 C .18200001 .032 .143 .061000006 .12200001 .105000007 C .10700001 .135 .09900001 .185 .09900001 .245 C .09900001 .34200005 .157 .41700004 .237 .41700004 C .28300003 .41700004 .31400005 .39900003 .33900003 .36200003 C .36300005 .32400004 .36400003 .28200004 .36400003 .224 C .36400003 .167 .36400003 .125 .33700005 .086 C .31300003 .051000004 .28100003 .032 .23200001 .032 Z "/>
</symbol>
<use xlink:href="#font_2_7" transform="matrix(14.528749,0,0,-14.528749,274.05815,337.51213)"/>
<use xlink:href="#font_0_4" transform="matrix(20.755415,0,0,-20.755415,241.39376,237.77356)"/>
<use xlink:href="#font_0_3" transform="matrix(20.755415,0,0,-20.755415,250.73369,238.23018)"/>
<use xlink:href="#font_1_1" transform="matrix(14.528749,0,0,-14.528749,261.86979,226.95882)"/>
<symbol id="font_2_6">
<path d="M .092 .578 C .143 .565 .17300001 .565 .18900001 .565 C .321 .565 .39900003 .65500006 .39900003 .67 C .39900003 .681 .39200003 .684 .38700003 .684 C .38500003 .684 .38300003 .684 .37900005 .681 C .35500003 .672 .30200003 .652 .22800002 .652 C .20000002 .652 .14700002 .654 .08200001 .679 C .072000008 .684 .07 .684 .069 .684 C .056 .684 .056 .67300006 .056 .657 L .056 .36200003 C .056 .34500004 .056 .33300004 .072000008 .33300004 C .08100001 .33300004 .08200001 .33500005 .092 .34700004 C .13500002 .40200005 .19600001 .41000004 .231 .41000004 C .291 .41000004 .31800003 .36200003 .323 .35400004 C .34100003 .32100005 .34700004 .28300003 .34700004 .22500001 C .34700004 .19500001 .34700004 .136 .31700004 .09200001 C .29200004 .056 .24900002 .032 .20000002 .032 C .13500002 .032 .06800001 .068 .043000007 .134 C .08100001 .13100001 .1 .156 .1 .183 C .1 .22600001 .063 .23400001 .050000006 .23400001 C .048000009 .23400001 0 .23400001 0 .18 C 0 .09 .08200001 0 .20200002 0 C .33 0 .442 .095000009 .442 .221 C .442 .33400003 .35600005 .43800003 .23200003 .43800003 C .18800003 .43800003 .136 .42700003 .092 .38900004 L .092 .578 Z "/>
</symbol>
<use xlink:href="#font_2_6" transform="matrix(14.528749,0,0,-14.528749,274.1889,230.53289)"/>
<use xlink:href="#font_0_4" transform="matrix(20.755415,0,0,-20.755415,241.39376,130.7944)"/>
<use xlink:href="#font_0_3" transform="matrix(20.755415,0,0,-20.755415,250.73369,131.25102)"/>
<use xlink:href="#font_1_1" transform="matrix(14.528749,0,0,-14.528749,261.86979,119.97965)"/>
<use xlink:href="#font_2_5" transform="matrix(14.528749,0,0,-14.528749,273.8402,123.26315)"/>
<use xlink:href="#font_0_4" transform="matrix(20.755415,0,0,-20.755415,241.39376,23.815186)"/>
<use xlink:href="#font_0_3" transform="matrix(20.755415,0,0,-20.755415,250.73369,24.271805)"/>
<use xlink:href="#font_1_1" transform="matrix(14.528749,0,0,-14.528749,261.86979,12.998363)"/>
<use xlink:href="#font_2_4" transform="matrix(14.528749,0,0,-14.528749,274.05815,16.572436)"/>
<clipPath id="cp3">
<path transform="matrix(2.0833333,0,0,-2.0833333,515.96737,-305.57225)" d="M -108.50525 -410.80793 L 217.01052 -410.80793 L 217.01052 -154.05297 L -108.50525 -154.05297 Z "/>
</clipPath>
<g clip-path="url(#cp3)">
<path transform="matrix(2.0833333,0,0,-2.0833333,515.96737,-305.57225)" stroke-width="1.99255" stroke-linecap="butt" stroke-miterlimit="10" stroke-linejoin="miter" fill="none" stroke="#000000" d="M -108.50525 -181.3748 L -92.17575 -189.00316 L -82.62073 -192.93799 L -75.84193 -195.96796 L -70.58463 -198.53241 L -66.28908 -200.92774 L -62.65898 -203.01442 L -59.51027 -204.80233 L -56.73547 -206.1703 L -54.25261 -207.36814 L -52.0074 -208.40193 L -48.07098 -210.11124 L -46.32552 -210.80953 L -43.18005 -212.24556 L -40.40454 -213.75647 L -37.92313 -214.9434 L -34.62846 -216.36038 L -32.66367 -217.12537 L -29.16658 -218.83774 L -26.84875 -219.88379 L -24.07288 -221.04724 L -21.00795 -222.61566 L -18.29678 -223.81656 L -15.8657 -225.06851 L -12.83493 -226.48685 L -10.15146 -227.71668 L -7.41873 -228.9846 L -4.67628 -230.20252 L -1.7106 -231.53238 L .92323 -232.67543 L 3.69911 -233.85932 L 6.54042 -235.06055 L 9.3943 -236.19815 L 12.2223 -237.32079 L 14.9971 -238.40903 L 17.70395 -239.45749 L 20.52835 -240.56241 L 23.315 -241.69287 L 26.11893 -242.85294 L 28.96957 -244.01265 L 31.75838 -245.10124 L 34.5303 -246.21096 L 37.34824 -247.33596 L 40.1658 -248.46097 L 42.94923 -249.55263 L 45.74669 -250.61946 L 48.5452 -251.58351 L 51.3466 -252.40839 L 54.15771 -253.18085 L 56.96413 -253.9448 L 59.77165 -254.73769 L 62.57951 -255.57617 L 65.36977 -256.5579 L 68.17871 -257.59346 L 70.98119 -258.6252 L 73.78403 -259.5709 L 76.5926 -260.4165 L 79.39438 -261.09678 L 82.19685 -261.66743 L 85.00005 -262.18025 L 87.80539 -262.67778 L 90.60966 -263.08613 L 93.41646 -263.3866 L 96.21893 -263.4509 L 99.02141 -263.4635 L 101.8246 -263.40464 L 104.63068 -263.0936 L 107.43784 -262.51783 L 110.24138 -261.78755 L 113.04459 -260.89668 L 115.84993 -259.8336 L 118.65385 -258.66435 L 121.4574 -257.47538 L 124.26096 -256.10398 L 127.06667 -254.57196 L 129.87201 -252.82456 L 132.67522 -250.9424 L 135.47949 -248.99353 L 138.28304 -247.01166 L 141.08408 -245.05838 L 143.89232 -243.09726 L 146.69766 -241.16098 L 149.50086 -239.26966 L 152.30585 -237.58042 L 155.1094 -236.20667 L 157.91548 -235.03333 L 160.71939 -233.90082 L 163.52404 -232.80406 L 166.32866 -231.97443 L 169.13294 -231.64809 "/>
<path transform="matrix(2.0833333,0,0,-2.0833333,515.96737,-305.57225)" stroke-width="1.99255" stroke-linecap="butt" stroke-dasharray="2.98883,2.98883" stroke-miterlimit="10" stroke-linejoin="miter" fill="none" stroke="#ff0000" d="M -108.50525 -181.52725 L -92.17575 -189.25566 L -82.62073 -193.7785 L -75.84193 -196.98543 L -70.58463 -199.47298 L -66.28908 -201.5052 L -62.65898 -203.22505 L -59.51027 -204.71385 L -56.73547 -206.02669 L -54.25261 -207.20206 L -52.0074 -208.2648 L -48.07098 -210.12689 L -46.32552 -210.95482 L -43.18005 -212.44362 L -40.40454 -213.75647 L -37.92313 -214.93184 L -34.62846 -216.49037 L -32.66367 -217.42008 L -29.16658 -219.07424 L -26.84875 -220.17134 L -24.07288 -221.48487 L -21.00795 -222.93555 L -18.29678 -224.2188 L -15.8657 -225.36864 L -12.83493 -226.80605 L -10.15146 -228.07569 L -7.41873 -229.36779 L -4.67628 -230.66498 L -1.7106 -232.06903 L .92323 -233.31552 L 3.69911 -234.62769 L 6.54042 -235.97322 L 9.3943 -237.3235 L 12.2223 -238.66222 L 14.9971 -239.97542 L 17.70395 -241.25559 L 20.52835 -242.5967 L 23.315 -243.91362 L 26.11893 -245.24044 L 28.96957 -246.5897 L 31.75838 -247.9107 L 34.5303 -249.21984 L 37.34824 -250.5531 L 40.1658 -251.88603 L 42.94923 -253.20433 L 45.74669 -254.52773 L 48.5452 -255.85352 L 51.3466 -257.1776 L 54.15771 -258.50849 L 56.96413 -259.83665 L 59.77165 -261.16517 L 62.57951 -262.49638 L 65.36977 -263.81706 L 68.17871 -265.14524 L 70.98119 -266.47068 L 73.78403 -267.79646 L 76.5926 -269.1263 L 79.39438 -270.45213 L 82.19685 -271.77687 L 85.00005 -273.10505 L 87.80539 -274.43254 L 90.60966 -275.7593 L 93.41646 -277.0875 L 96.21893 -278.4184 L 99.02141 -279.74418 L 101.8246 -281.0689 L 104.63068 -282.39677 L 107.43784 -283.72425 L 110.24138 -285.0507 L 113.04459 -286.3765 L 115.84993 -287.7043 L 118.65385 -289.0311 L 121.4574 -290.35826 L 124.26096 -291.68577 L 127.06667 -293.01597 L 129.87201 -294.34175 L 132.67522 -295.6682 L 135.47949 -296.99433 L 138.28304 -298.32148 L 141.08408 -299.64897 L 143.89232 -300.9761 L 146.69766 -302.30326 L 149.50086 -303.63008 L 152.30585 -304.95756 L 155.1094 -306.28504 L 157.91548 -307.61183 L 160.71939 -308.93934 L 163.52404 -310.2668 L 166.32866 -311.59397 L 169.13294 -312.92076 "/>
<path transform="matrix(2.0833333,0,0,-2.0833333,515.96737,-305.57225)" stroke-width="1.99255" stroke-linecap="butt" stroke-dasharray="2.98883,2.98883" stroke-miterlimit="10" stroke-linejoin="miter" fill="none" stroke="#0000ff" d="M -108.50525 -263.4509 L -92.17575 -263.4509 L -82.62073 -263.4509 L -75.84193 -263.4509 L -70.58463 -263.4509 L -66.28908 -263.4509 L -62.65898 -263.4509 L -59.51027 -263.4509 L -56.73547 -263.4509 L -54.25261 -263.4509 L -52.0074 -263.4509 L -48.07098 -263.4509 L -46.32552 -263.4509 L -43.18005 -263.4509 L -40.40454 -263.4509 L -37.92313 -263.4509 L -34.62846 -263.4509 L -32.66367 -263.4509 L -29.16658 -263.4509 L -26.84875 -263.4509 L -24.07288 -263.4509 L -21.00795 -263.4509 L -18.29678 -263.4509 L -15.8657 -263.4509 L -12.83493 -263.4509 L -10.15146 -263.4509 L -7.41873 -263.4509 L -4.67628 -263.4509 L -1.7106 -263.4509 L .92323 -263.4509 L 3.69911 -263.4509 L 6.54042 -263.4509 L 9.3943 -263.4509 L 12.2223 -263.4509 L 14.9971 -263.4509 L 17.70395 -263.4509 L 20.52835 -263.4509 L 23.315 -263.4509 L 26.11893 -263.4509 L 28.96957 -263.4509 L 31.75838 -263.4509 L 34.5303 -263.4509 L 37.34824 -263.4509 L 40.1658 -263.4509 L 42.94923 -263.4509 L 45.74669 -263.4509 L 48.5452 -263.4509 L 51.3466 -263.4509 L 54.15771 -263.4509 L 56.96413 -263.4509 L 59.77165 -263.4509 L 62.57951 -263.4509 L 65.36977 -263.4509 L 68.17871 -263.4509 L 70.98119 -263.4509 L 73.78403 -263.4509 L 76.5926 -263.4509 L 79.39438 -263.4509 L 82.19685 -263.4509 L 85.00005 -263.4509 L 87.80539 -263.4509 L 90.60966 -263.4509 L 93.41646 -263.4509 L 96.21893 -263.4509 L 99.02141 -263.4509 L 101.8246 -263.4509 L 104.63068 -263.4509 L 107.43784 -263.4509 L 110.24138 -263.4509 L 113.04459 -263.4509 L 115.84993 -263.4509 L 118.65385 -263.4509 L 121.4574 -263.4509 L 124.26096 -263.4509 L 127.06667 -263.4509 L 129.87201 -263.4509 L 132.67522 -263.4509 L 135.47949 -263.4509 L 138.28304 -263.4509 L 141.08408 -263.4509 L 143.89232 -263.4509 L 146.69766 -263.4509 L 149.50086 -263.4509 L 152.30585 -263.4509 L 155.1094 -263.4509 L 157.91548 -263.4509 L 160.71939 -263.4509 L 163.52404 -263.4509 L 166.32866 -263.4509 L 169.13294 -263.4509 "/>
<path transform="matrix(2.0833333,0,0,-2.0833333,515.96737,-305.57225)" stroke-width="1.99255" stroke-linecap="butt" stroke-dasharray="2.98883,2.98883" stroke-miterlimit="10" stroke-linejoin="miter" fill="none" stroke="#00ff00" d="M -108.50525 -366.3101 L -92.17575 -358.5783 L -82.62073 -354.05616 L -75.84193 -350.84953 L -70.58463 -348.36134 L -66.28908 -346.3284 L -62.65898 -344.6106 L -59.51027 -343.12013 L -56.73547 -341.80659 L -54.25261 -340.6312 L -52.0074 -339.5688 L -48.07098 -337.7057 L -46.32552 -336.88017 L -43.18005 -335.39137 L -40.40454 -334.07817 L -37.92313 -332.9038 L -34.62846 -331.34425 L -32.66367 -330.41728 L -29.16658 -328.76213 L -26.84875 -327.66194 L -24.07288 -326.3484 L -21.00795 -324.89808 L -18.29678 -323.6148 L -15.8657 -322.46464 L -12.83493 -321.0303 L -10.15146 -319.761 L -7.41873 -318.46586 L -4.67628 -317.17 L -1.7106 -315.76597 L .92323 -314.52186 L 3.69911 -313.20695 L 6.54042 -311.86073 L 9.3943 -310.50944 L 12.2223 -309.17073 L 14.9971 -307.8572 L 17.70395 -306.577 L 20.52835 -305.24067 L 23.315 -303.9217 L 26.11893 -302.5942 L 28.96957 -301.24427 L 31.75838 -299.92359 L 34.5303 -298.61378 L 37.34824 -297.28157 L 40.1658 -295.9479 L 42.94923 -294.62895 L 45.74669 -293.30726 L 48.5452 -291.9801 L 51.3466 -290.65538 L 54.15771 -289.3258 L 56.96413 -287.99699 L 59.77165 -286.66847 L 62.57951 -285.33995 L 65.36977 -284.01963 L 68.17871 -282.68974 L 70.98119 -281.3643 L 73.78403 -280.03855 L 76.5926 -278.70866 L 79.39438 -277.38526 L 82.19685 -276.05537 L 85.00005 -274.72755 L 87.80539 -273.4011 L 90.60966 -272.07395 L 93.41646 -270.7451 L 96.21893 -269.41966 L 99.02141 -268.09288 L 101.8246 -266.7657 L 104.63068 -265.43855 L 107.43784 -264.1128 L 110.24138 -262.7846 L 113.04459 -261.45646 L 115.84993 -260.12965 L 118.65385 -258.80216 L 121.4574 -257.47538 L 124.26096 -256.14753 L 127.06667 -254.82038 L 129.87201 -253.49289 L 132.67522 -252.1654 L 135.47949 -250.8386 L 138.28304 -249.5118 L 141.08408 -248.185 L 143.89232 -246.85819 L 146.69766 -245.53206 L 149.50086 -244.20322 L 152.30585 -242.8788 L 155.1094 -241.55165 L 157.91548 -240.22077 L 160.71939 -238.89397 L 163.52404 -237.56613 L 166.32866 -236.23967 L 169.13294 -234.91219 "/>
</g>
<path transform="matrix(2.0833333,0,0,-2.0833333,515.96737,-305.57225)" stroke-width="1.99255" stroke-linecap="butt" stroke-miterlimit="10" stroke-linejoin="miter" fill="none" stroke="#ff0000" d="M 0 -237.85964 L 0 -227.89687 M 4.31401 -230.38756 L -4.31401 -235.36894 M 4.31401 -235.36894 L -4.31401 -230.38756 "/>
<path transform="matrix(2.0833333,0,0,-2.0833333,515.96737,-305.57225)" stroke-width="1.99255" stroke-linecap="butt" stroke-miterlimit="10" stroke-linejoin="miter" fill="none" stroke="#0000ff" d="M 96.21893 -268.43229 L 96.21893 -258.4695 M 100.53296 -260.9602 L 91.90492 -265.9416 M 100.53296 -265.9416 L 91.90492 -260.9602 "/>
<path transform="matrix(2.0833333,0,0,-2.0833333,515.96737,-305.57225)" stroke-width="1.99255" stroke-linecap="butt" stroke-miterlimit="10" stroke-linejoin="miter" fill="none" stroke="#00ff00" d="M 25.8845 -307.68653 L 25.8845 -297.72377 M 30.19853 -300.21446 L 21.5705 -305.19584 M 30.19853 -305.19584 L 21.5705 -300.21446 "/>
<symbol id="font_4_2">
<path d="M .267 .38500003 L .435 .38500003 C .448 .38500003 .48400004 .38500003 .48400004 .419 C .48400004 .44300003 .463 .44300003 .444 .44300003 L .16400002 .44300003 C .14400001 .44300003 .105 .44300003 .061000006 .396 C .028000003 .36 0 .312 0 .306 C 0 .305 0 .296 .012 .296 C .020000002 .296 .022000002 .3 .028000003 .308 C .077 .38500003 .13400002 .38500003 .15500002 .38500003 L .23800002 .38500003 L .14000002 .064 C .136 .052 .13000001 .031000002 .13000001 .027 C .13000001 .016 .13700001 0 .15900001 0 C .19200002 0 .19700001 .028 .20000002 .043 L .267 .38500003 Z "/>
</symbol>
<use xlink:href="#font_4_2" transform="matrix(20.755415,0,0,-20.755415,623.84036,597.91848)" fill="#333333"/>
<symbol id="font_4_1">
<path d="M .48000003 .38400004 C .49300004 .38400004 .52900007 .38400004 .52900007 .418 C .52900007 .44200004 .508 .44200004 .49 .44200004 L .26200003 .44200004 C .111 .44200004 0 .277 0 .158 C 0 .07000001 .059 0 .15 0 C .268 0 .40100003 .12100001 .40100003 .275 C .40100003 .29200004 .40100003 .34000004 .37 .38400004 L .48000003 .38400004 M .15100001 .022000002 C .102 .022000002 .062 .058000003 .062 .13000001 C .062 .16000001 .074 .24200002 .109 .30100004 C .15100001 .37000004 .21100001 .38400004 .24500002 .38400004 C .329 .38400004 .337 .31800003 .337 .28700004 C .337 .24000003 .31700004 .158 .283 .107 C .244 .048 .19000001 .022000002 .15100001 .022000002 Z "/>
</symbol>
<use xlink:href="#font_4_1" transform="matrix(0,-20.755415,-20.755415,-0,222.69153,302.114)" fill="#333333"/>
<symbol id="font_0_1">
<path d="M .23200003 .00999999 C .23200003 .012999982 .23200003 .014999986 .215 .03199999 C .09 .15799999 .058 .347 .058 .5 C .058 .674 .096 .84800007 .21900001 .97300007 C .23200003 .985 .23200003 .98700007 .23200003 .99 C .23200003 .99700006 .22800002 1 .222 1 C .21200001 1 .12200001 .93200007 .06299999 .805 C .012000002 .69500008 0 .584 0 .5 C 0 .422 .011 .301 .066 .188 C .126 .065 .21200001 0 .222 0 C .22800002 0 .23200003 .0029999912 .23200003 .00999999 Z "/>
</symbol>
<use xlink:href="#font_0_1" transform="matrix(0,-20.755415,-20.755415,-0,227.65209,288.24375)" fill="#333333"/>
<use xlink:href="#font_4_2" transform="matrix(0,-20.755415,-20.755415,-0,222.7123,281.66734)" fill="#333333"/>
<symbol id="font_0_2">
<path d="M .232 .5 C .232 .578 .22100002 .699 .16600001 .81200006 C .106 .93500009 .020000004 1 .009999998 1 C .0040000008 1 0 .99600008 0 .99 C 0 .98700007 0 .985 .019000002 .967 C .117000009 .86800006 .174 .709 .174 .5 C .174 .329 .137 .153 .012999997 .026999996 C 0 .014999986 0 .012999982 0 .00999999 C 0 .003999993 .0040000008 0 .009999998 0 C .020000004 0 .11000001 .06799999 .169 .195 C .22 .305 .232 .416 .232 .5 Z "/>
</symbol>
<use xlink:href="#font_0_2" transform="matrix(0,-20.755415,-20.755415,-0,227.65209,269.62174)" fill="#333333"/>
<path transform="matrix(2.0833333,0,0,-2.0833333,515.96737,-305.57225)" d="M 68.14764 -212.96567 L 210.29953 -212.96567 L 210.29953 -159.38843 L 68.14764 -159.38843 Z " fill="#ffffff"/>
<path transform="matrix(2.0833333,0,0,-2.0833333,515.96737,-305.57225)" stroke-width=".3985" stroke-linecap="butt" stroke-miterlimit="10" stroke-linejoin="miter" fill="none" stroke="#333333" d="M 68.14764 -212.96567 L 210.29953 -212.96567 L 210.29953 -159.38843 L 68.14764 -159.38843 Z "/>
<path transform="matrix(2.0833333,0,0,-2.0833333,666.2424,43.548566)" stroke-width="1.99255" stroke-linecap="butt" stroke-miterlimit="10" stroke-linejoin="miter" fill="none" stroke="#000000" d="M 0 0 L 8.50412 0 L 17.00826 0 "/>
<symbol id="font_0_5">
<path d="M .36600004 .69600006 C .361 .70900008 .35900004 .716 .34300003 .716 C .32700003 .716 .324 .71000006 .319 .69600006 L .112 .098000008 C .094 .047000003 .054 .032 0 .031000002 L 0 0 C .023000002 .001 .066 .003 .102 .003 C .133 .003 .185 .001 .21700001 0 L .21700001 .031000002 C .16700001 .031000002 .142 .056 .142 .082 C .142 .085 .143 .095000009 .14400001 .097 L .19000001 .22800002 L .437 .22800002 L .49 .075 C .491 .071 .49300004 .065000008 .49300004 .061000006 C .49300004 .031000002 .437 .031000002 .41000004 .031000002 L .41000004 0 C .446 .003 .51600006 .003 .554 .003 C .597 .003 .643 .002 .685 0 L .685 .031000002 L .66700008 .031000002 C .60700008 .031000002 .593 .038000004 .582 .071 L .36600004 .69600006 M .31300003 .58400008 L .42600004 .259 L .201 .259 L .31300003 .58400008 Z "/>
</symbol>
<symbol id="font_0_13">
<path d="M .144 .694 L 0 .683 L 0 .652 C .07000001 .652 .07800001 .64500007 .07800001 .596 L .07800001 .076000008 C .07800001 .031000002 .067 .031000002 0 .031000002 L 0 0 C .033 .001 .086 .003 .11100001 .003 C .136 .003 .185 .001 .22200004 0 L .22200004 .031000002 C .155 .031000002 .144 .031000002 .144 .076000008 L .144 .694 Z "/>
</symbol>
<symbol id="font_0_c">
<path d="M .291 .087000008 C .29500003 .047000003 .32200004 .005000001 .36900003 .005000001 C .39000003 .005000001 .45100004 .019000002 .45100004 .1 L .45100004 .15600002 L .42600004 .15600002 L .42600004 .1 C .42600004 .042000005 .40100003 .036000004 .39000003 .036000004 C .35700003 .036000004 .35300002 .081 .35300002 .086 L .35300002 .286 C .35300002 .328 .35300002 .367 .31700004 .404 C .27800004 .44300003 .22800002 .45900003 .18 .45900003 C .098 .45900003 .029 .41200004 .029 .34600003 C .029 .316 .049000004 .29900003 .075 .29900003 C .10300001 .29900003 .121 .31900005 .121 .34500004 C .121 .35700003 .116000007 .39000003 .07 .39100004 C .09700001 .42600004 .146 .43700005 .178 .43700005 C .22700003 .43700005 .284 .39800004 .284 .30900003 L .284 .272 C .23300001 .26900003 .16300002 .26600004 .1 .23600002 C .024999999 .20200002 0 .15000002 0 .106000009 C 0 .025000003 .09700001 0 .16 0 C .22600001 0 .272 .040000004 .291 .087000008 M .284 .25100003 L .284 .15100001 C .284 .056 .21200001 .022000002 .167 .022000002 C .11800001 .022000002 .077 .057000005 .077 .107 C .077 .16200002 .11900001 .24500002 .284 .25100003 Z "/>
</symbol>
<symbol id="font_0_15">
<path d="M .07800001 .344 L .07800001 .076000008 C .07800001 .031000002 .067 .031000002 0 .031000002 L 0 0 C .035 .001 .08600001 .003 .113000009 .003 C .139 .003 .191 .001 .225 0 L .225 .031000002 C .158 .031000002 .147 .031000002 .147 .076000008 L .147 .26000003 C .147 .36400003 .218 .42000003 .282 .42000003 C .345 .42000003 .356 .36600004 .356 .30900003 L .356 .076000008 C .356 .031000002 .345 .031000002 .278 .031000002 L .278 0 C .31300003 .001 .36400003 .003 .391 .003 C .41700004 .003 .46900005 .001 .503 0 L .503 .031000002 C .451 .031000002 .42600004 .031000002 .425 .061000006 L .425 .252 C .425 .33800004 .425 .36900003 .39400003 .40500004 C .38000003 .42200003 .347 .44200004 .289 .44200004 C .216 .44200004 .169 .39900003 .141 .337 L .141 .44200004 L 0 .43100003 L 0 .4 C .07000001 .4 .07800001 .393 .07800001 .344 Z "/>
</symbol>
<symbol id="font_0_7">
<path d="M 0 .683 L 0 .652 L .024000004 .652 C .10100001 .652 .103000018 .64100006 .103000018 .605 L .103000018 .078 C .103000018 .042000005 .10100001 .031000002 .024000004 .031000002 L 0 .031000002 L 0 0 L .36600004 0 C .534 0 .672 .148 .672 .33600004 C .672 .526 .537 .683 .36600004 .683 L 0 .683 M .238 .031000002 C .19100002 .031000002 .18900001 .038000004 .18900001 .071 L .18900001 .61200007 C .18900001 .64500007 .19100002 .652 .238 .652 L .33800004 .652 C .40000005 .652 .469 .63000008 .52 .559 C .563 .5 .572 .41400004 .572 .33600004 C .572 .22500001 .553 .165 .517 .116000007 C .497 .089 .44000004 .031000002 .33900003 .031000002 L .238 .031000002 Z "/>
</symbol>
<symbol id="font_0_f">
<path d="M .08400001 .263 C .09 .41200004 .17400001 .43700005 .20800002 .43700005 C .31100003 .43700005 .321 .30200003 .321 .263 L .08400001 .263 M .083000008 .24200002 L .36200003 .24200002 C .38400004 .24200002 .38700003 .24200002 .38700003 .263 C .38700003 .36200003 .33300004 .45900003 .20800002 .45900003 C .09200001 .45900003 0 .35600005 0 .23100002 C 0 .097 .105000007 0 .22000002 0 C .342 0 .38700003 .111 .38700003 .13000001 C .38700003 .14000002 .379 .14200002 .374 .14200002 C .365 .14200002 .36300005 .136 .36100004 .128 C .326 .025000003 .236 .025000003 .22600001 .025000003 C .17600002 .025000003 .136 .055000005 .113000009 .092 C .083000008 .14000002 .083000008 .20600002 .083000008 .24200002 Z "/>
</symbol>
<symbol id="font_0_19">
<path d="M .397 .344 C .40600003 .367 .42300005 .41000004 .48900003 .411 L .48900003 .44200004 C .46600003 .44000004 .43700005 .43900005 .41400004 .43900005 C .39000003 .43900005 .344 .441 .32700003 .44200004 L .32700003 .411 C .36400003 .41000004 .37500004 .38700003 .37500004 .36800004 C .37500004 .35900004 .37300004 .35500003 .36900003 .344 L .26700003 .089 L .155 .36800004 C .14900002 .381 .14900002 .38300003 .14900002 .38500003 C .14900002 .411 .18800003 .411 .206 .411 L .206 .44200004 C .176 .441 .12000001 .43900005 .097 .43900005 C .07 .43900005 .030000002 .44000004 0 .44200004 L 0 .411 C .063 .411 .067 .40500004 .080000009 .374 L .224 .019000002 C .23000002 .005000001 .23200003 0 .245 0 C .25800003 0 .26200003 .009000001 .26600004 .019000002 L .397 .344 Z "/>
</symbol>
<symbol id="font_0_11">
<path d="M .144 .44200004 L .0040000008 .43100003 L .0040000008 .4 C .069000009 .4 .07800001 .39400003 .07800001 .34500004 L .07800001 .076000008 C .07800001 .031000002 .067 .031000002 0 .031000002 L 0 0 C .032000007 .001 .086 .003 .11000001 .003 C .14500001 .003 .18 .001 .21400002 0 L .21400002 .031000002 C .148 .031000002 .144 .036000004 .144 .075 L .144 .44200004 M .148 .61600008 C .148 .648 .123 .669 .095000009 .669 C .064 .669 .042000005 .642 .042000005 .61600008 C .042000005 .58900007 .064 .563 .095000009 .563 C .123 .563 .148 .58400008 .148 .61600008 Z "/>
</symbol>
<symbol id="font_0_18">
<path d="M .15400002 .411 L .29700003 .411 L .29700003 .44200004 L .15400002 .44200004 L .15400002 .626 L .12900001 .626 C .12799999 .544 .098000008 .43700005 0 .43300004 L 0 .411 L .085 .411 L .085 .135 C .085 .012000001 .178 0 .21400002 0 C .28500004 0 .31300003 .071 .31300003 .135 L .31300003 .19200002 L .28800003 .19200002 L .28800003 .13700001 C .28800003 .063 .25800003 .025000003 .22100002 .025000003 C .15400002 .025000003 .15400002 .116000007 .15400002 .13300002 L .15400002 .411 Z "/>
</symbol>
<symbol id="font_0_16">
<path d="M .44300003 .22500003 C .44300003 .35300002 .34300003 .45900003 .222 .45900003 C .097 .45900003 0 .35000003 0 .22500003 C 0 .096 .104 0 .22100002 0 C .342 0 .44300003 .098000008 .44300003 .22500003 M .222 .025000003 C .17900002 .025000003 .135 .046 .10800001 .092 C .083000008 .136 .083000008 .19700001 .083000008 .23300003 C .083000008 .272 .083000008 .32600004 .10700001 .37000004 C .134 .41600005 .18100001 .43700005 .22100002 .43700005 C .26500003 .43700005 .30800004 .41500003 .33400003 .37200005 C .36 .32900004 .36 .27100004 .36 .23300003 C .36 .19700001 .36 .143 .33800004 .09900001 C .316 .054 .272 .025000003 .222 .025000003 Z "/>
</symbol>
<use xlink:href="#font_0_5" transform="matrix(20.755415,0,0,-20.755415,708.56698,49.19861)"/>
<use xlink:href="#font_0_13" transform="matrix(20.755415,0,0,-20.755415,724.1543,49.19861)"/>
<use xlink:href="#font_0_13" transform="matrix(20.755415,0,0,-20.755415,729.92428,49.19861)"/>
<use xlink:href="#font_0_c" transform="matrix(20.755415,0,0,-20.755415,735.88107,49.426919)"/>
<use xlink:href="#font_0_15" transform="matrix(20.755415,0,0,-20.755415,746.0512,49.19861)"/>
<use xlink:href="#font_0_7" transform="matrix(20.755415,0,0,-20.755415,764.565,49.19861)"/>
<use xlink:href="#font_0_f" transform="matrix(20.755415,0,0,-20.755415,780.2769,49.426919)"/>
<use xlink:href="#font_0_19" transform="matrix(20.755415,0,0,-20.755415,789.3055,49.426919)"/>
<use xlink:href="#font_0_11" transform="matrix(20.755415,0,0,-20.755415,800.55496,49.19861)"/>
<use xlink:href="#font_0_c" transform="matrix(20.755415,0,0,-20.755415,806.51168,49.426919)"/>
<use xlink:href="#font_0_18" transform="matrix(20.755415,0,0,-20.755415,816.412,49.426919)"/>
<use xlink:href="#font_0_11" transform="matrix(20.755415,0,0,-20.755415,824.7765,49.19861)"/>
<use xlink:href="#font_0_16" transform="matrix(20.755415,0,0,-20.755415,830.4427,49.426919)"/>
<use xlink:href="#font_0_15" transform="matrix(20.755415,0,0,-20.755415,840.9034,49.19861)"/>
<path transform="matrix(2.0833333,0,0,-2.0833333,666.2424,69.37773)" stroke-width="1.99255" stroke-linecap="butt" stroke-dasharray="2.98883,2.98883" stroke-miterlimit="10" stroke-linejoin="miter" fill="none" stroke="#ff0000" d="M 0 0 L 8.50412 0 L 17.00826 0 "/>
<symbol id="font_0_10">
<path d="M .19400002 .37800003 C .10700001 .37800003 .10700001 .47800005 .10700001 .50100007 C .10700001 .52800008 .10800001 .56 .12300001 .58500006 C .13100001 .59700009 .15400002 .62500008 .19400002 .62500008 C .28100003 .62500008 .28100003 .52500006 .28100003 .50200006 C .28100003 .47500003 .28000004 .44300003 .26500003 .41800005 C .25700004 .40600003 .23400003 .37800003 .19400002 .37800003 M .07800001 .33900003 C .07800001 .34300003 .07800001 .36600004 .095 .38600005 C .134 .35800005 .17500001 .35500003 .19400002 .35500003 C .28700004 .35500003 .356 .42400003 .356 .50100007 C .356 .53800007 .34000004 .57500007 .31500004 .59800007 C .351 .632 .38700003 .637 .40500004 .637 C .40700004 .637 .41200004 .637 .41500003 .63600006 C .404 .632 .39900003 .62100008 .39900003 .609 C .39900003 .592 .41200004 .58000007 .42800004 .58000007 C .43800003 .58000007 .45700003 .587 .45700003 .61 C .45700003 .62700006 .44500003 .65900006 .40600003 .65900006 C .38600005 .65900006 .342 .65300008 .3 .61200007 C .25800003 .64500007 .21600002 .64800009 .19400002 .64800009 C .10100001 .64800009 .032 .57900008 .032 .50200006 C .032 .458 .054 .42000003 .07900001 .39900003 C .066 .384 .048000006 .351 .048000006 .316 C .048000006 .28500004 .061 .24700001 .09200001 .22700002 C .032 .21000001 0 .16700001 0 .127 C 0 .055000009 .09900001 0 .22100002 0 C .33900003 0 .44300003 .051000015 .44300003 .12900001 C .44300003 .164 .42900003 .21500002 .37800003 .24300002 C .32500003 .27100004 .26700003 .27100004 .20600002 .27100004 C .18100001 .27100004 .13800001 .27100004 .13100001 .272 C .09900001 .27600003 .07800001 .307 .07800001 .33900003 M .222 .023000002 C .12100001 .023000002 .052000006 .074000019 .052000006 .127 C .052000006 .17300001 .09 .21000001 .134 .21300002 L .19300002 .21300002 C .279 .21300002 .39100004 .21300002 .39100004 .127 C .39100004 .073000017 .32000003 .023000002 .222 .023000002 Z "/>
</symbol>
<symbol id="font_0_a">
<path d="M .18900001 .37500004 L .18900001 .63400009 C .18900001 .65700009 .18900001 .669 .21100001 .67200008 C .22100002 .674 .25000004 .674 .27 .674 C .36 .674 .47200004 .67 .47200004 .52500006 C .47200004 .45600004 .448 .37500004 .3 .37500004 L .18900001 .37500004 M .40000005 .36200003 C .497 .38600005 .575 .44700004 .575 .52500006 C .575 .62100008 .46100004 .70500007 .314 .70500007 L 0 .70500007 L 0 .674 L .024000004 .674 C .10100001 .674 .103000018 .66300007 .103000018 .62700006 L .103000018 .1 C .103000018 .064 .10100001 .053000004 .024000004 .053000004 L 0 .053000004 L 0 .022000002 C .036000004 .025000003 .10700001 .025000003 .14600002 .025000003 C .18500002 .025000003 .256 .025000003 .29200004 .022000002 L .29200004 .053000004 L .268 .053000004 C .19100002 .053000004 .18900001 .064 .18900001 .1 L .18900001 .35300005 L .30400003 .35300005 C .32000003 .35300005 .36200003 .35300005 .397 .31900005 C .43500004 .28300003 .43500004 .252 .43500004 .185 C .43500004 .120000008 .43500004 .080000009 .47600005 .042000005 C .517 .006000001 .572 0 .602 0 C .68 0 .697 .082 .697 .11000001 C .697 .116000007 .697 .127 .684 .127 C .673 .127 .673 .118 .672 .111 C .666 .040000004 .631 .022000002 .606 .022000002 C .557 .022000002 .549 .07300001 .535 .16600001 L .522 .246 C .504 .31000004 .455 .34300003 .40000005 .36200003 Z "/>
</symbol>
<symbol id="font_0_e">
<path d="M .34600003 .06600001 L .34600003 0 L .493 .011000001 L .493 .042000005 C .423 .042000005 .41500003 .049000004 .41500003 .098000008 L .41500003 .705 L .271 .694 L .271 .663 C .34100003 .663 .349 .656 .349 .607 L .349 .39100004 C .32 .42700003 .277 .45300005 .22299999 .45300005 C .10500001 .45300005 0 .35500003 0 .22600001 C 0 .09900001 .098 0 .21200001 0 C .276 0 .321 .034 .34600003 .06600001 M .34600003 .33400003 L .34600003 .12900001 C .34600003 .111 .34600003 .109000008 .335 .092 C .305 .044 .26 .022000002 .21700001 .022000002 C .17200002 .022000002 .136 .048 .11200001 .086 C .086 .127 .083000008 .18400002 .083000008 .22500003 C .083000008 .26200003 .085 .32200004 .114 .367 C .13500002 .39800004 .17300001 .43100003 .227 .43100003 C .262 .43100003 .30400003 .41600005 .335 .37100003 C .34600003 .35400004 .34600003 .35200004 .34600003 .33400003 Z "/>
</symbol>
<symbol id="font_0_14">
<path d="M .07800001 .344 L .07800001 .076000008 C .07800001 .031000002 .067 .031000002 0 .031000002 L 0 0 C .035 .001 .08600001 .003 .113000009 .003 C .139 .003 .191 .001 .225 0 L .225 .031000002 C .158 .031000002 .147 .031000002 .147 .076000008 L .147 .26000003 C .147 .36400003 .218 .42000003 .282 .42000003 C .345 .42000003 .356 .36600004 .356 .30900003 L .356 .076000008 C .356 .031000002 .345 .031000002 .278 .031000002 L .278 0 C .31300003 .001 .36400003 .003 .391 .003 C .41700004 .003 .46900005 .001 .503 0 L .503 .031000002 C .43600003 .031000002 .425 .031000002 .425 .076000008 L .425 .26000003 C .425 .36400003 .496 .42000003 .56 .42000003 C .623 .42000003 .634 .36600004 .634 .30900003 L .634 .076000008 C .634 .031000002 .623 .031000002 .556 .031000002 L .556 0 C .591 .001 .642 .003 .669 .003 C .69500008 .003 .74700006 .001 .781 0 L .781 .031000002 C .72900006 .031000002 .70400008 .031000002 .703 .061000006 L .703 .252 C .703 .33800004 .703 .36900003 .67200008 .40500004 C .65800008 .42200003 .625 .44200004 .56700006 .44200004 C .48300005 .44200004 .439 .38200004 .42200003 .344 C .40800003 .43100003 .33400003 .44200004 .289 .44200004 C .216 .44200004 .169 .39900003 .141 .337 L .141 .44200004 L 0 .43100003 L 0 .4 C .07000001 .4 .07800001 .393 .07800001 .344 Z "/>
</symbol>
<symbol id="font_0_b">
<path d="M .89100006 .60700008 C .90900006 .66400006 .952 .674 .99100008 .674 L .99100008 .70500007 C .961 .70300009 .93000009 .702 .90000006 .702 C .87100008 .702 .80700007 .70400008 .781 .70500007 L .781 .674 C .84800007 .67300006 .86800006 .64000007 .86800006 .62100008 C .86800006 .61500009 .865 .60700008 .86300006 .6010001 L .713 .13900002 L .55300006 .62900009 C .55200007 .633 .55 .63900008 .55 .64400008 C .55 .674 .60800006 .674 .634 .674 L .634 .70500007 C .59800007 .702 .53000006 .702 .49200005 .702 C .45400004 .702 .411 .70400008 .37 .70500007 L .37 .674 C .42700003 .674 .448 .674 .46 .6380001 L .482 .568 L .34300003 .13900002 L .182 .63100007 C .18100001 .63400009 .18 .64100006 .18 .64400008 C .18 .674 .238 .674 .264 .674 L .264 .70500007 C .228 .702 .16 .702 .122 .702 C .08400001 .702 .041 .70400008 0 .70500007 L 0 .674 C .075 .674 .079 .669 .091000009 .632 L .291 .019000002 C .294 .010000002 .29700003 0 .31 0 C .324 0 .326 .007000001 .33 .020000002 L .495 .52800008 L .661 .019000002 C .66400006 .010000002 .66700008 0 .68 0 C .694 0 .69600006 .007000001 .70000007 .020000002 L .89100006 .60700008 Z "/>
</symbol>
<symbol id="font_0_12">
<path d="M .07800001 .076000008 C .07800001 .031000002 .067 .031000002 0 .031000002 L 0 0 C .033000005 .001 .08 .003 .10900001 .003 C .13900002 .003 .17900002 .002 .21900001 0 L .21900001 .031000002 C .15200001 .031000002 .14100002 .031000002 .14100002 .076000008 L .14100002 .179 L .20500002 .23400001 C .282 .128 .32400004 .072000008 .32400004 .054 C .32400004 .035 .307 .031000002 .28800003 .031000002 L .28800003 0 C .316 .001 .37500004 .003 .39600004 .003 C .425 .003 .45400004 .002 .48300005 0 L .48300005 .031000002 C .44600005 .031000002 .42400003 .031000002 .38600005 .08400001 L .259 .263 C .25800003 .26500003 .25300003 .27100004 .25300003 .27400003 C .25300003 .27800004 .32400004 .33800004 .33400003 .34600003 C .397 .397 .439 .39900003 .46000005 .4 L .46000005 .43100003 C .43100003 .42800004 .418 .42800004 .39000003 .42800004 C .35400004 .42800004 .29200004 .43 .27800004 .43100003 L .27800004 .4 C .29700003 .39900003 .307 .388 .307 .37500004 C .307 .35500003 .293 .34300003 .28500004 .33600004 L .14400001 .21400002 L .14400001 .694 L 0 .683 L 0 .652 C .07000001 .652 .07800001 .64500007 .07800001 .596 L .07800001 .076000008 Z "/>
</symbol>
<symbol id="font_0_9">
<path d="M .549 .25800003 L .52400007 .25800003 C .513 .156 .499 .031000002 .323 .031000002 L .24100003 .031000002 C .194 .031000002 .192 .038000004 .192 .071 L .192 .60400006 C .192 .638 .192 .652 .28700004 .652 L .32000003 .652 L .32000003 .683 C .284 .68 .19300002 .68 .15200001 .68 C .11300001 .68 .035000005 .68 0 .683 L 0 .652 L .024000004 .652 C .101 .652 .10300001 .64100006 .10300001 .605 L .10300001 .078 C .10300001 .042000005 .101 .031000002 .024000004 .031000002 L 0 .031000002 L 0 0 L .521 0 L .549 .25800003 Z "/>
</symbol>
<use xlink:href="#font_0_5" transform="matrix(20.755415,0,0,-20.755415,708.56698,75.02771)"/>
<use xlink:href="#font_0_15" transform="matrix(20.755415,0,0,-20.755415,724.13357,75.02771)"/>
<use xlink:href="#font_0_10" transform="matrix(20.755415,0,0,-20.755415,735.5906,79.30333)"/>
<use xlink:href="#font_0_13" transform="matrix(20.755415,0,0,-20.755415,746.072,75.02771)"/>
<use xlink:href="#font_0_f" transform="matrix(20.755415,0,0,-20.755415,751.7382,75.25602)"/>
<use xlink:href="#font_0_a" transform="matrix(20.755415,0,0,-20.755415,768.01046,75.48433)"/>
<use xlink:href="#font_0_c" transform="matrix(20.755415,0,0,-20.755415,783.43179,75.25602)"/>
<use xlink:href="#font_0_15" transform="matrix(20.755415,0,0,-20.755415,793.6019,75.02771)"/>
<use xlink:href="#font_0_e" transform="matrix(20.755415,0,0,-20.755415,805.1835,75.25602)"/>
<use xlink:href="#font_0_16" transform="matrix(20.755415,0,0,-20.755415,816.599,75.25602)"/>
<use xlink:href="#font_0_14" transform="matrix(20.755415,0,0,-20.755415,827.0597,75.02771)"/>
<use xlink:href="#font_0_b" transform="matrix(20.755415,0,0,-20.755415,850.9907,75.48433)"/>
<use xlink:href="#font_0_c" transform="matrix(20.755415,0,0,-20.755415,871.0819,75.25602)"/>
<use xlink:href="#font_0_13" transform="matrix(20.755415,0,0,-20.755415,881.2728,75.02771)"/>
<use xlink:href="#font_0_12" transform="matrix(20.755415,0,0,-20.755415,886.9391,75.02771)"/>
<use xlink:href="#font_0_9" transform="matrix(20.755415,0,0,-20.755415,904.934,75.02771)"/>
<use xlink:href="#font_0_11" transform="matrix(20.755415,0,0,-20.755415,917.9061,75.02771)"/>
<use xlink:href="#font_0_15" transform="matrix(20.755415,0,0,-20.755415,923.6554,75.02771)"/>
<use xlink:href="#font_0_f" transform="matrix(20.755415,0,0,-20.755415,935.11239,75.25602)"/>
<path transform="matrix(2.0833333,0,0,-2.0833333,666.2424,95.20482)" stroke-width="1.99255" stroke-linecap="butt" stroke-dasharray="2.98883,2.98883" stroke-miterlimit="10" stroke-linejoin="miter" fill="none" stroke="#0000ff" d="M 0 0 L 8.50412 0 L 17.00826 0 "/>
<symbol id="font_0_6">
<path d="M .18600002 .36600004 L .18600002 .61200007 C .18600002 .64500007 .18800001 .652 .23500003 .652 L .359 .652 C .456 .652 .491 .56700006 .491 .514 C .491 .45000003 .442 .36600004 .331 .36600004 L .18600002 .36600004 M .42200003 .35700003 C .519 .37600003 .588 .44000004 .588 .514 C .588 .601 .496 .683 .366 .683 L 0 .683 L 0 .652 L .024 .652 C .10100001 .652 .103000018 .64100006 .103000018 .605 L .103000018 .078 C .103000018 .042000005 .10100001 .031000002 .024 .031000002 L 0 .031000002 L 0 0 L .39200003 0 C .52500006 0 .615 .089 .615 .18300002 C .615 .27 .533 .34500004 .42200003 .35700003 M .36 .031000002 L .23500003 .031000002 C .18800001 .031000002 .18600002 .038000004 .18600002 .071 L .18600002 .344 L .374 .344 C .473 .344 .515 .25100003 .515 .18400002 C .515 .113000009 .463 .031000002 .36 .031000002 Z "/>
</symbol>
<symbol id="font_0_17">
<path d="M .17500001 .20500002 C .197 .20100002 .279 .18500002 .279 .113000009 C .279 .062000004 .24400002 .022000002 .16600001 .022000002 C .082 .022000002 .046000005 .079 .027000003 .16400002 C .024000004 .17700002 .023000002 .18100001 .013000004 .18100001 C 0 .18100001 0 .17400001 0 .15600002 L 0 .024 C 0 .0070000009 0 0 .011000004 0 C .016000003 0 .017 .0010000002 .036000007 .020000002 C .038000004 .022000002 .038000004 .024 .056 .043 C .1 .0010000002 .14500001 0 .16600001 0 C .28100003 0 .32700003 .067 .32700003 .13900002 C .32700003 .19200002 .29700003 .22200002 .28500004 .23400001 C .25200004 .26600004 .213 .27400003 .171 .28200004 C .115 .293 .048 .30600003 .048 .36400003 C .048 .39900003 .07400001 .44000004 .16 .44000004 C .27 .44000004 .27500005 .35000003 .277 .31900005 C .27800004 .31000004 .28700004 .31000004 .28900004 .31000004 C .30200003 .31000004 .30200003 .31500004 .30200003 .33400003 L .30200003 .43500004 C .30200003 .45200003 .30200003 .45900003 .291 .45900003 C .286 .45900003 .284 .45900003 .27100004 .44700004 C .26800005 .44300003 .25800003 .43400003 .254 .43100003 C .21600002 .45900003 .17500001 .45900003 .16 .45900003 C .038000004 .45900003 0 .39200003 0 .33600004 C 0 .30100004 .016000003 .27300004 .043000007 .25100003 C .075 .22500003 .10300001 .21900001 .17500001 .20500002 Z "/>
</symbol>
<symbol id="font_0_8">
<path d="M .19700001 .605 C .19700001 .64100006 .20000002 .652 .279 .652 L .305 .652 L .305 .683 C .27 .68 .19100002 .68 .15300001 .68 C .11400001 .68 .035 .68 0 .683 L 0 .652 L .026 .652 C .105000007 .652 .10800001 .64100006 .10800001 .605 L .10800001 .078 C .10800001 .042000005 .105000007 .031000002 .026 .031000002 L 0 .031000002 L 0 0 C .035 .003 .11400001 .003 .15200001 .003 C .19100002 .003 .27 .003 .305 0 L .305 .031000002 L .279 .031000002 C .20000002 .031000002 .19700001 .042000005 .19700001 .078 L .19700001 .605 Z "/>
</symbol>
<symbol id="font_0_d">
<path d="M .14400001 .388 L .14400001 .705 L 0 .694 L 0 .663 C .07000001 .663 .07800001 .656 .07800001 .607 L .07800001 .011000001 L .103000018 .011000001 C .104 .012000001 .112 .026 .13900002 .07300001 C .15400002 .05 .19600001 0 .27 0 C .38900004 0 .49300004 .098000008 .49300004 .22700002 C .49300004 .35400004 .395 .45300005 .28100003 .45300005 C .20300001 .45300005 .16000001 .40600003 .14400001 .388 M .14700002 .12500002 L .14700002 .33100004 C .14700002 .35000003 .14700002 .351 .158 .367 C .19700001 .42300005 .252 .43100003 .27600003 .43100003 C .321 .43100003 .35700003 .40500004 .381 .367 C .40700004 .32600004 .41000004 .26900003 .41000004 .22800002 C .41000004 .19100002 .40800003 .13100001 .379 .086 C .358 .055000005 .32000003 .022000002 .266 .022000002 C .22100002 .022000002 .18500002 .046 .16100002 .083000008 C .14700002 .104 .14700002 .107 .14700002 .12500002 Z "/>
</symbol>
<symbol id="font_0_1a">
<path d="M .39600004 .541 C .42200003 .60400006 .47300003 .605 .48900003 .605 L .48900003 .63600006 C .46600003 .63400009 .43700005 .633 .41400004 .633 C .39600004 .633 .34900005 .635 .32700003 .63600006 L .32700003 .605 C .358 .60400006 .374 .587 .374 .56200006 C .374 .55200007 .37300004 .5500001 .36800004 .538 L .26700003 .29200004 L .15600002 .561 C .15200001 .57100006 .15 .57500007 .15 .579 C .15 .605 .187 .605 .206 .605 L .206 .63600006 C .18 .635 .114 .633 .097 .633 C .07 .633 .030000002 .63400009 0 .63600006 L 0 .605 C .048 .605 .067 .605 .081 .57000008 L .231 .20500002 C .22600001 .19200002 .21200001 .15900001 .206 .14600002 C .18400002 .091000009 .15600002 .022 .09200001 .022 C .087000008 .022 .064 .022 .045 .040000008 C .076000008 .044 .08400001 .066 .08400001 .08200001 C .08400001 .10800001 .065000008 .12400001 .042000005 .12400001 C .022 .12400001 0 .11100001 0 .08100001 C 0 .036 .042000005 0 .09200001 0 C .155 0 .19600001 .05700001 .22 .11400001 L .39600004 .541 Z "/>
</symbol>
<use xlink:href="#font_0_6" transform="matrix(20.755415,0,0,-20.755415,708.64999,100.85693)"/>
<use xlink:href="#font_0_11" transform="matrix(20.755415,0,0,-20.755415,723.2826,100.85693)"/>
<use xlink:href="#font_0_c" transform="matrix(20.755415,0,0,-20.755415,729.2393,101.08524)"/>
<use xlink:href="#font_0_17" transform="matrix(20.755415,0,0,-20.755415,739.43026,101.08524)"/>
<use xlink:href="#font_0_8" transform="matrix(20.755415,0,0,-20.755415,754.41567,100.85693)"/>
<use xlink:href="#font_0_15" transform="matrix(20.755415,0,0,-20.755415,761.9914,100.85693)"/>
<use xlink:href="#font_0_17" transform="matrix(20.755415,0,0,-20.755415,773.5521,101.08524)"/>
<use xlink:href="#font_0_18" transform="matrix(20.755415,0,0,-20.755415,781.4392,101.08524)"/>
<use xlink:href="#font_0_c" transform="matrix(20.755415,0,0,-20.755415,789.9904,101.08524)"/>
<use xlink:href="#font_0_d" transform="matrix(20.755415,0,0,-20.755415,800.0776,101.08524)"/>
<use xlink:href="#font_0_11" transform="matrix(20.755415,0,0,-20.755415,811.7214,100.85693)"/>
<use xlink:href="#font_0_13" transform="matrix(20.755415,0,0,-20.755415,817.49136,100.85693)"/>
<use xlink:href="#font_0_11" transform="matrix(20.755415,0,0,-20.755415,823.26138,100.85693)"/>
<use xlink:href="#font_0_18" transform="matrix(20.755415,0,0,-20.755415,828.7407,101.08524)"/>
<use xlink:href="#font_0_1a" transform="matrix(20.755415,0,0,-20.755415,836.23348,105.11179)"/>
<use xlink:href="#font_0_9" transform="matrix(20.755415,0,0,-20.755415,854.4152,100.85693)"/>
<use xlink:href="#font_0_11" transform="matrix(20.755415,0,0,-20.755415,867.3873,100.85693)"/>
<use xlink:href="#font_0_15" transform="matrix(20.755415,0,0,-20.755415,873.1366,100.85693)"/>
<use xlink:href="#font_0_f" transform="matrix(20.755415,0,0,-20.755415,884.59359,101.08524)"/>
<path transform="matrix(2.0833333,0,0,-2.0833333,666.2424,121.03398)" stroke-width="1.99255" stroke-linecap="butt" stroke-dasharray="2.98883,2.98883" stroke-miterlimit="10" stroke-linejoin="miter" fill="none" stroke="#00ff00" d="M 0 0 L 8.50412 0 L 17.00826 0 "/>
<use xlink:href="#font_0_a" transform="matrix(20.755415,0,0,-20.755415,708.6292,127.14061)"/>
<use xlink:href="#font_0_c" transform="matrix(20.755415,0,0,-20.755415,724.05056,126.9123)"/>
<use xlink:href="#font_0_18" transform="matrix(20.755415,0,0,-20.755415,733.95089,126.9123)"/>
<use xlink:href="#font_0_f" transform="matrix(20.755415,0,0,-20.755415,742.21157,126.9123)"/>
<use xlink:href="#font_0_a" transform="matrix(20.755415,0,0,-20.755415,758.48379,127.14061)"/>
<use xlink:href="#font_0_c" transform="matrix(20.755415,0,0,-20.755415,773.905,126.9123)"/>
<use xlink:href="#font_0_15" transform="matrix(20.755415,0,0,-20.755415,784.0752,126.68399)"/>
<use xlink:href="#font_0_e" transform="matrix(20.755415,0,0,-20.755415,795.65676,126.9123)"/>
<use xlink:href="#font_0_16" transform="matrix(20.755415,0,0,-20.755415,807.07229,126.9123)"/>
<use xlink:href="#font_0_14" transform="matrix(20.755415,0,0,-20.755415,817.53298,126.68399)"/>
<use xlink:href="#font_0_b" transform="matrix(20.755415,0,0,-20.755415,841.464,127.14061)"/>
<use xlink:href="#font_0_c" transform="matrix(20.755415,0,0,-20.755415,861.55526,126.9123)"/>
<use xlink:href="#font_0_13" transform="matrix(20.755415,0,0,-20.755415,871.74618,126.68399)"/>
<use xlink:href="#font_0_12" transform="matrix(20.755415,0,0,-20.755415,877.41238,126.68399)"/>
<use xlink:href="#font_0_9" transform="matrix(20.755415,0,0,-20.755415,895.4073,126.68399)"/>
<use xlink:href="#font_0_11" transform="matrix(20.755415,0,0,-20.755415,908.37948,126.68399)"/>
<use xlink:href="#font_0_15" transform="matrix(20.755415,0,0,-20.755415,914.12869,126.68399)"/>
<use xlink:href="#font_0_f" transform="matrix(20.755415,0,0,-20.755415,925.5857,126.9123)"/>
</g>
</svg>
