<?xml version="1.0" encoding="UTF-8" standalone="no"?>
<!-- Created with Inkscape (http://www.inkscape.org/) -->

<svg
   width="210mm"
   height="297mm"
   viewBox="0 0 210 297"
   version="1.1"
   id="svg1"
   inkscape:version="1.4 (86a8ad7, 2024-10-11)"
   sodipodi:docname="inkscapeEx.svg"
   xmlns:inkscape="http://www.inkscape.org/namespaces/inkscape"
   xmlns:sodipodi="http://sodipodi.sourceforge.net/DTD/sodipodi-0.dtd"
   xmlns="http://www.w3.org/2000/svg"
   xmlns:svg="http://www.w3.org/2000/svg">
  <sodipodi:namedview
     id="namedview1"
     pagecolor="#ffffff"
     bordercolor="#000000"
     borderopacity="0.25"
     inkscape:showpageshadow="2"
     inkscape:pageopacity="0.0"
     inkscape:pagecheckerboard="0"
     inkscape:deskcolor="#d1d1d1"
     inkscape:document-units="mm"
     inkscape:zoom="1.0396254"
     inkscape:cx="396.77752"
     inkscape:cy="561.74078"
     inkscape:window-width="1278"
     inkscape:window-height="1360"
     inkscape:window-x="-7"
     inkscape:window-y="0"
     inkscape:window-maximized="0"
     inkscape:current-layer="layer1" />
  <defs
     id="defs1" />
  <g
     inkscape:label="Layer 1"
     inkscape:groupmode="layer"
     id="layer1">
    <path
       style="fill:#000000;stroke-width:0.264583"
       d="M 51.408739,58.025707 C 99.508997,125.46787 99.508997,125.46787 99.508997,125.46787"
       id="path1" />
    <path
       style="fill:#000000;stroke-width:0.264583"
       d="M 62.606684,40.465295 C 102.81748,104.59897 102.81748,104.59897 102.81748,104.59897"
       id="path2" />
    <path
       style="fill:#000000;stroke-width:0.264583"
       d="m 104.59897,112.99743 26.97686,-10.43445"
       id="path3" />
    <path
       style="fill:#000000;stroke-width:0.264583"
       d="m 48.354755,140.22879 c 27.485861,29.26735 27.485861,29.26735 27.485861,29.26735"
       id="path4" />
    <path
       style="fill:#000000;stroke-width:0.264583"
       d="m 109.94344,117.8329 c 0,91.36504 0,91.36504 0,91.36504"
       id="path5" />
    <path
       style="fill:#000000;stroke-width:0.264583"
       d="m 80.676093,163.89717 c 9.670949,69.98715 9.670949,69.98715 9.670949,69.98715"
       id="path6" />
    <path
       style="fill:#000000;stroke-width:0.264583"
       d="M 121.39589,104.08997 63.115681,69.987146 49.62725,107.90745 57.516709,138.9563 c 0,0 65.660671,7.12596 65.660671,3.56298 0,-3.56298 -0.7635,-50.390745 -0.7635,-50.390745 l 28.50386,-25.704371 1.01799,54.717226"
       id="path7" />
    <path
       style="fill:#000000;stroke-width:0.264583"
       d="m 71.768636,23.66838 c 6.616967,210.47043 5.344475,208.43444 5.344475,208.43444"
       id="path8" />
    <path
       style="fill:#000000;stroke-width:0.264583"
       d="m 119.3599,216.5784 c 0.50899,-1.27249 14.25192,-34.86632 14.25192,-34.86632"
       id="path9" />
    <path
       style="fill:#000000;stroke-width:0.264583"
       d="m 136.92031,187.82005 c 0.50899,1.52699 24.68637,56.49871 24.68637,56.49871"
       id="path10" />
  </g>
</svg>
