<?xml version="1.0" encoding="UTF-8" standalone="no"?>
<!DOCTYPE svg PUBLIC "-//W3C//DTD SVG 1.1//EN" "http://www.w3.org/Graphics/SVG/1.1/DTD/svg11.dtd">
<svg xmlns="http://www.w3.org/2000/svg" xmlns:xlink="http://www.w3.org/1999/xlink" version="1.1" width="1189.9944pt" height="474.93055pt" viewBox="0 0 1189.9944 474.93055">
<g enable-background="new">
<path transform="matrix(2.0833333,0,0,-2.0833333,104.860408,89.82637)" stroke-width="1.19553" stroke-linecap="butt" stroke-miterlimit="10" stroke-linejoin="miter" fill="none" stroke="#000000" d="M 42.52022 0 C 42.52022 23.48355 23.48355 42.52022 0 42.52022 C -23.48355 42.52022 -42.52022 23.48355 -42.52022 0 C -42.52022 -23.48355 -23.48355 -42.52022 0 -42.52022 C 23.48355 -42.52022 42.52022 -23.48355 42.52022 0 Z M 0 0 "/>
<path transform="matrix(2.0833333,0,0,-2.0833333,104.860408,89.82637)" stroke-width="1.19553" stroke-linecap="butt" stroke-miterlimit="10" stroke-linejoin="miter" fill="none" stroke="#000000" d="M 297.6415 0 C 297.6415 23.48355 278.60484 42.52022 255.12128 42.52022 C 231.63773 42.52022 212.60106 23.48355 212.60106 0 C 212.60106 -23.48355 231.63773 -42.52022 255.12128 -42.52022 C 278.60484 -42.52022 297.6415 -23.48355 297.6415 0 Z M 255.12128 0 "/>
<path transform="matrix(2.0833333,0,0,-2.0833333,104.860408,89.82637)" stroke-width="1.19553" stroke-linecap="butt" stroke-miterlimit="10" stroke-linejoin="miter" fill="none" stroke="#000000" d="M 155.90746 -141.73404 C 155.90746 -118.25049 136.87079 -99.21382 113.38724 -99.21382 C 89.90367 -99.21382 70.867 -118.25049 70.867 -141.73404 C 70.867 -165.2176 89.90367 -184.25426 113.38724 -184.25426 C 136.87079 -184.25426 155.90746 -165.2176 155.90746 -141.73404 Z M 113.38724 -141.73404 "/>
<path transform="matrix(2.0833333,0,0,-2.0833333,104.860408,89.82637)" stroke-width=".79701" stroke-linecap="butt" stroke-miterlimit="10" stroke-linejoin="miter" fill="none" stroke="#ffffff" d="M 24.80345 0 C 24.80345 13.69875 13.69875 24.80345 0 24.80345 C -13.69875 24.80345 -24.80345 13.69875 -24.80345 0 C -24.80345 -13.69875 -13.69875 -24.80345 0 -24.80345 C 13.69875 -24.80345 24.80345 -13.69875 24.80345 0 Z M 0 0 "/>
<path transform="matrix(2.0833333,0,0,-2.0833333,104.860408,89.82637)" stroke-width=".3985" stroke-linecap="butt" stroke-dasharray="2.98883,2.98883" stroke-miterlimit="10" stroke-linejoin="miter" fill="none" stroke="#000000" d="M 0 0 L -43.11797 0 "/>
<path transform="matrix(2.0833333,0,0,-2.0833333,104.860408,89.82637)" stroke-width=".3985" stroke-linecap="butt" stroke-dasharray="2.98883,2.98883" stroke-miterlimit="10" stroke-linejoin="miter" fill="none" stroke="#000000" d="M 0 0 L 40.51782 14.74547 "/>
<path transform="matrix(2.0833333,0,0,-2.0833333,104.860408,89.82637)" stroke-width=".3985" stroke-linecap="butt" stroke-miterlimit="10" stroke-linejoin="miter" fill="none" stroke="#000000" d="M -23.6699 2.65334 C -15.51886 16.7695 8.84872 21.06633 21.33527 10.58804 "/>
<path transform="matrix(-1.0417291,1.8041667,1.8041667,1.0417291,57.337995,81.19872)" d="M 4.21463 0 L .64343 1.34572 L 1.8178 0 L .64343 -1.34572 Z "/>
<path transform="matrix(-1.0417291,1.8041667,1.8041667,1.0417291,57.337995,81.19872)" stroke-width=".3985" stroke-linecap="butt" stroke-miterlimit="10" stroke-linejoin="miter" fill="none" stroke="#000000" d="M 4.21463 0 L .64343 1.34572 L 1.8178 0 L .64343 -1.34572 Z "/>
<path transform="matrix(1.5958124,1.3391665,1.3391665,-1.5958124,146.56702,65.46695)" d="M 4.21463 0 L .64343 1.34572 L 1.8178 0 L .64343 -1.34572 Z "/>
<path transform="matrix(1.5958124,1.3391665,1.3391665,-1.5958124,146.56702,65.46695)" stroke-width=".3985" stroke-linecap="butt" stroke-miterlimit="10" stroke-linejoin="miter" fill="none" stroke="#000000" d="M 4.21463 0 L .64343 1.34572 L 1.8178 0 L .64343 -1.34572 Z "/>
<symbol id="font_0_1">
<path d="M .43600003 .24700003 C .43600003 .404 .343 .45300005 .269 .45300005 C .132 .45300005 0 .31000004 0 .16900002 C 0 .076000008 .060000004 0 .162 0 C .225 0 .29700003 .023000002 .37300004 .08400001 C .386 .031000004 .419 0 .464 0 C .517 0 .54800006 .055000005 .54800006 .071 C .54800006 .078 .542 .081 .536 .081 C .52900007 .081 .526 .078 .523 .071 C .505 .022000002 .46900005 .022000002 .467 .022000002 C .43600003 .022000002 .43600003 .1 .43600003 .124000009 C .43600003 .14500001 .43600003 .14700002 .446 .15900001 C .54 .277 .56100007 .39300005 .56100007 .39400003 C .56100007 .39600004 .56 .404 .549 .404 C .53900006 .404 .53900006 .40100003 .53400006 .38300003 C .51600006 .32000003 .48300005 .24400002 .43600003 .18500002 L .43600003 .24700003 M .36900003 .11000001 C .28100003 .033000005 .204 .022000002 .164 .022000002 C .10400001 .022000002 .074 .067 .074 .13100001 C .074 .18000002 .1 .28800003 .132 .33900003 C .17900002 .41200004 .23300001 .43100003 .268 .43100003 C .367 .43100003 .367 .3 .367 .22200002 C .367 .18500002 .367 .127 .36900003 .11000001 Z "/>
</symbol>
<use xlink:href="#font_0_1" transform="matrix(20.755415,0,0,-20.755415,86.70513,47.80677)"/>
<symbol id="font_1_1">
<path d="M .14900002 .120000008 C .114 .066 .08200001 .040000004 .023000002 .036000004 C .012999997 .035 0 .035 0 .015000001 C 0 .004 .008999996 0 .013999999 0 C .04 0 .07300001 .004 .1 .004 C .132 .004 .17300001 0 .20300001 0 C .208 0 .22299999 0 .22299999 .022000002 C .22299999 .035 .21000001 .036000004 .206 .036000004 C .19800002 .037 .162 .039 .162 .066 C .162 .078 .17200002 .095000009 .17700002 .104 L .257 .22800002 L .54300007 .22800002 L .56700006 .062000004 C .563 .052 .55700007 .036000004 .498 .036000004 C .48600004 .036000004 .47200004 .036000004 .47200004 .014 C .47200004 .010000001 .475 0 .488 0 C .517 0 .58800008 .004 .61700007 .004 C .63500007 .004 .65800008 .003 .67600008 .003 C .69400009 .002 .71500006 0 .73300006 0 C .74600008 0 .7530001 .008 .7530001 .021000002 C .7530001 .036000004 .74100008 .036000004 .7250001 .036000004 C .66700008 .036000004 .6650001 .044000005 .66200008 .068 L .57400009 .68500009 C .57100006 .70600005 .56900009 .71300008 .5500001 .71300008 C .531 .71300008 .52500006 .70400008 .51600006 .69000008 L .14900002 .120000008 M .28100003 .264 L .49100004 .591 L .53800007 .264 L .28100003 .264 Z "/>
</symbol>
<use xlink:href="#font_1_1" transform="matrix(14.528749,0,0,-14.528749,99.961467,50.69095)"/>
<path transform="matrix(2.0833333,0,0,-2.0833333,104.860408,89.82637)" stroke-width=".79701" stroke-linecap="butt" stroke-miterlimit="10" stroke-linejoin="miter" fill="none" stroke="#ffffff" d="M 138.19069 -141.73404 C 138.19069 -128.0353 127.08598 -116.93059 113.38724 -116.93059 C 99.68849 -116.93059 88.58377 -128.0353 88.58377 -141.73404 C 88.58377 -155.43279 99.68849 -166.53749 113.38724 -166.53749 C 127.08598 -166.53749 138.19069 -155.43279 138.19069 -141.73404 Z M 113.38724 -141.73404 "/>
<path transform="matrix(2.0833333,0,0,-2.0833333,104.860408,89.82637)" stroke-width=".3985" stroke-linecap="butt" stroke-dasharray="2.98883,2.98883" stroke-miterlimit="10" stroke-linejoin="miter" fill="none" stroke="#000000" d="M 113.38724 -141.73404 L 150.72859 -163.2917 "/>
<path transform="matrix(2.0833333,0,0,-2.0833333,104.860408,89.82637)" stroke-width=".3985" stroke-linecap="butt" stroke-dasharray="2.98883,2.98883" stroke-miterlimit="10" stroke-linejoin="miter" fill="none" stroke="#000000" d="M 113.38724 -141.73404 L 70.92455 -149.22061 "/>
<path transform="matrix(2.0833333,0,0,-2.0833333,104.860408,89.82637)" stroke-width=".3985" stroke-linecap="butt" stroke-miterlimit="10" stroke-linejoin="miter" fill="none" stroke="#000000" d="M 132.86585 -156.3037 C 121.0585 -166.21137 97.80734 -162.1114 90.10023 -148.76323 "/>
<path transform="matrix(1.5958332,-1.3391458,-1.3391458,-1.5958332,378.92228,417.75996)" d="M 4.21463 0 L .64343 1.34572 L 1.8178 0 L .64343 -1.34572 Z "/>
<path transform="matrix(1.5958332,-1.3391458,-1.3391458,-1.5958332,378.92228,417.75996)" stroke-width=".3985" stroke-linecap="butt" stroke-miterlimit="10" stroke-linejoin="miter" fill="none" stroke="#000000" d="M 4.21463 0 L .64343 1.34572 L 1.8178 0 L .64343 -1.34572 Z "/>
<path transform="matrix(-1.0416666,-1.8041875,-1.8041875,1.0416666,294.35899,402.84965)" d="M 4.21463 0 L .64343 1.34572 L 1.8178 0 L .64343 -1.34572 Z "/>
<path transform="matrix(-1.0416666,-1.8041875,-1.8041875,1.0416666,294.35899,402.84965)" stroke-width=".3985" stroke-linecap="butt" stroke-miterlimit="10" stroke-linejoin="miter" fill="none" stroke="#000000" d="M 4.21463 0 L .64343 1.34572 L 1.8178 0 L .64343 -1.34572 Z "/>
<use xlink:href="#font_0_1" transform="matrix(20.755415,0,0,-20.755415,321.19264,441.063)"/>
<symbol id="font_1_2">
<path d="M .11800001 .078 C .109000008 .044000005 .107 .036000004 .030000002 .036000004 C .012999997 .036000004 0 .036000004 0 .015000001 C 0 0 .012000002 0 .030000002 0 L .41700004 0 C .585 0 .714 .115 .714 .21400002 C .714 .28500004 .649 .34600003 .543 .35700003 C .66400006 .379 .765 .455 .765 .541 C .765 .61700007 .688 .683 .558 .683 L .194 .683 C .17500001 .683 .162 .683 .162 .661 C .162 .647 .174 .647 .194 .647 C .19500003 .647 .21400002 .647 .23200003 .64500007 C .25300003 .643 .25500003 .64100006 .25500003 .63100007 C .25500003 .629 .25500003 .624 .25100003 .609 L .11800001 .078 M .27800004 .36900003 L .33900003 .61300006 C .34700004 .64400008 .34800003 .647 .39000003 .647 L .542 .647 C .644 .647 .667 .58000007 .667 .54200008 C .667 .46100004 .576 .36900003 .442 .36900003 L .27800004 .36900003 M .23000002 .036000004 C .19900003 .036000004 .19800002 .037 .19800002 .046000005 C .19800002 .047000003 .19800002 .052 .20200002 .067 L .27100004 .34100003 L .483 .34100003 C .577 .34100003 .61300006 .279 .61300006 .22100002 C .61300006 .12200001 .512 .036000004 .39100004 .036000004 L .23000002 .036000004 Z "/>
</symbol>
<use xlink:href="#font_1_2" transform="matrix(14.528749,0,0,-14.528749,334.6648,443.94718)"/>
<path transform="matrix(2.0833333,0,0,-2.0833333,104.860408,89.82637)" stroke-width=".79701" stroke-linecap="butt" stroke-miterlimit="10" stroke-linejoin="miter" fill="none" stroke="#ffffff" d="M 279.92475 0 C 279.92475 13.69875 268.82 24.80345 255.12128 24.80345 C 241.42253 24.80345 230.31783 13.69875 230.31783 0 C 230.31783 -13.69875 241.42253 -24.80345 255.12128 -24.80345 C 268.82 -24.80345 279.92475 -13.69875 279.92475 0 Z M 255.12128 0 "/>
<path transform="matrix(2.0833333,0,0,-2.0833333,104.860408,89.82637)" stroke-width=".3985" stroke-linecap="butt" stroke-dasharray="2.98883,2.98883" stroke-miterlimit="10" stroke-linejoin="miter" fill="none" stroke="#000000" d="M 255.12128 0 L 217.77993 21.55766 "/>
<path transform="matrix(2.0833333,0,0,-2.0833333,104.860408,89.82637)" stroke-width=".3985" stroke-linecap="butt" stroke-dasharray="2.98883,2.98883" stroke-miterlimit="10" stroke-linejoin="miter" fill="none" stroke="#000000" d="M 255.12128 0 L 298.23927 0 "/>
<path transform="matrix(2.0833333,0,0,-2.0833333,104.860408,89.82637)" stroke-width=".3985" stroke-linecap="butt" stroke-miterlimit="10" stroke-linejoin="miter" fill="none" stroke="#000000" d="M 235.80545 14.35753 C 248.86299 23.50095 272.29106 17.22354 279.02833 2.77675 "/>
<path transform="matrix(-1.7065417,1.1949166,1.1949166,1.7065417,599.05386,57.861726)" d="M 4.21463 0 L .64343 1.34572 L 1.8178 0 L .64343 -1.34572 Z "/>
<path transform="matrix(-1.7065417,1.1949166,1.1949166,1.7065417,599.05386,57.861726)" stroke-width=".3985" stroke-linecap="butt" stroke-miterlimit="10" stroke-linejoin="miter" fill="none" stroke="#000000" d="M 4.21463 0 L .64343 1.34572 L 1.8178 0 L .64343 -1.34572 Z "/>
<path transform="matrix(.88049998,1.8880832,1.8880832,-.88049998,684.65658,80.797389)" d="M 4.21463 0 L .64343 1.34572 L 1.8178 0 L .64343 -1.34572 Z "/>
<path transform="matrix(.88049998,1.8880832,1.8880832,-.88049998,684.65658,80.797389)" stroke-width=".3985" stroke-linecap="butt" stroke-miterlimit="10" stroke-linejoin="miter" fill="none" stroke="#000000" d="M 4.21463 0 L .64343 1.34572 L 1.8178 0 L .64343 -1.34572 Z "/>
<use xlink:href="#font_0_1" transform="matrix(20.755415,0,0,-20.755415,632.9926,44.512979)"/>
<symbol id="font_1_3">
<path d="M .77300009 .71000006 C .77300009 .71500006 .77000007 .723 .76000007 .723 C .753 .723 .75100007 .721 .74200007 .711 L .669 .634 C .66 .646 .60400006 .723 .481 .723 C .23800004 .723 0 .508 0 .28200004 C 0 .11900001 .12800002 0 .307 0 C .36100004 0 .45700003 .011000001 .56000009 .098000008 C .63900008 .165 .661 .252 .661 .26000003 C .661 .27300004 .64900007 .27300004 .64400008 .27300004 C .63100007 .27300004 .62900009 .268 .62600007 .25700004 C .58500006 .120000008 .44500006 .036000004 .32400004 .036000004 C .21800003 .036000004 .1 .09300001 .1 .25100003 C .1 .28000004 .107 .43800003 .22200004 .564 C .29100005 .64100006 .39600004 .68700006 .49100007 .68700006 C .60700008 .68700006 .6750001 .603 .6750001 .49100004 C .6750001 .46300004 .67200008 .45600004 .67200008 .45000003 C .67200008 .43700005 .68500009 .43700005 .69000008 .43700005 C .70600005 .43700005 .70600005 .44000004 .711 .45900003 L .77300009 .71000006 Z "/>
</symbol>
<use xlink:href="#font_1_3" transform="matrix(14.528749,0,0,-14.528749,646.4357,47.68776)"/>
<path transform="matrix(2.0833333,0,0,-2.0833333,104.860408,89.82637)" stroke-width=".3985" stroke-linecap="butt" stroke-miterlimit="10" stroke-linejoin="miter" fill="none" stroke="#000000" d="M 0 0 L -37.63867 -13.69774 "/>
<path transform="matrix(-1.9577082,.7124167,.7124167,1.9577082,29.810185,117.13922)" d="M 4.21463 0 L .64343 1.34572 L 1.8178 0 L .64343 -1.34572 Z "/>
<path transform="matrix(-1.9577082,.7124167,.7124167,1.9577082,29.810185,117.13922)" stroke-width=".3985" stroke-linecap="butt" stroke-miterlimit="10" stroke-linejoin="miter" fill="none" stroke="#000000" d="M 4.21463 0 L .64343 1.34572 L 1.8178 0 L .64343 -1.34572 Z "/>
<symbol id="font_0_a">
<path d="M .059000009 .07000001 C .056 .055000005 .050000006 .032 .050000006 .027000003 C .050000006 .009000001 .064 0 .079 0 C .091000009 0 .10900001 .008000001 .11600001 .028 C .118 .032 .15200001 .16800002 .156 .18600002 C .164 .21900001 .18200001 .28900004 .18800001 .316 C .19200002 .32900004 .22000002 .37600003 .244 .39800004 C .252 .40500004 .281 .43100003 .324 .43100003 C .35 .43100003 .365 .41900004 .366 .41900004 C .336 .41400004 .314 .39000003 .314 .36400003 C .314 .34800003 .325 .32900004 .352 .32900004 C .379 .32900004 .407 .35200004 .407 .388 C .407 .42300005 .375 .45300005 .324 .45300005 C .259 .45300005 .21500002 .404 .19600001 .37600003 C .18800001 .42100004 .15200001 .45300005 .105000007 .45300005 C .059000009 .45300005 .040000008 .41400004 .031000002 .39600004 C .013000002 .36200003 0 .30200003 0 .29900003 C 0 .28900004 .01 .28900004 .012 .28900004 C .022000002 .28900004 .023 .29000003 .029000001 .31200005 C .046000005 .38300003 .06600001 .43100003 .10200001 .43100003 C .119 .43100003 .133 .42300005 .133 .38500003 C .133 .36400003 .13000001 .35300002 .11700001 .30100004 L .059000009 .07000001 Z "/>
</symbol>
<use xlink:href="#font_0_a" transform="matrix(20.755415,0,0,-20.755415,51.8144,121.683849)"/>
<use xlink:href="#font_1_1" transform="matrix(14.528749,0,0,-14.528749,61.405218,124.5701)"/>
<path transform="matrix(2.0833333,0,0,-2.0833333,104.860408,89.82637)" stroke-width=".3985" stroke-linecap="butt" stroke-miterlimit="10" stroke-linejoin="miter" fill="none" stroke="#000000" d="M 113.38724 -141.73404 L 153.28787 -138.2436 "/>
<path transform="matrix(2.075354,-.18154167,-.18154167,-2.075354,420.6443,378.14579)" d="M 4.21463 0 L .64343 1.34572 L 1.8178 0 L .64343 -1.34572 Z "/>
<path transform="matrix(2.075354,-.18154167,-.18154167,-2.075354,420.6443,378.14579)" stroke-width=".3985" stroke-linecap="butt" stroke-miterlimit="10" stroke-linejoin="miter" fill="none" stroke="#000000" d="M 4.21463 0 L .64343 1.34572 L 1.8178 0 L .64343 -1.34572 Z "/>
<use xlink:href="#font_0_a" transform="matrix(20.755415,0,0,-20.755415,374.5998,370.97135)"/>
<use xlink:href="#font_1_2" transform="matrix(14.528749,0,0,-14.528749,384.40855,373.85554)"/>
<path transform="matrix(2.0833333,0,0,-2.0833333,104.860408,89.82637)" stroke-width=".3985" stroke-linecap="butt" stroke-miterlimit="10" stroke-linejoin="miter" fill="none" stroke="#000000" d="M 255.12128 0 L 215.06722 0 "/>
<path transform="matrix(-2.0833333,0,0,2.0833333,556.49667,89.82637)" d="M 4.21463 0 L .64343 1.34572 L 1.8178 0 L .64343 -1.34572 Z "/>
<path transform="matrix(-2.0833333,0,0,2.0833333,556.49667,89.82637)" stroke-width=".3985" stroke-linecap="butt" stroke-miterlimit="10" stroke-linejoin="miter" fill="none" stroke="#000000" d="M 4.21463 0 L .64343 1.34572 L 1.8178 0 L .64343 -1.34572 Z "/>
<use xlink:href="#font_0_a" transform="matrix(20.755415,0,0,-20.755415,580.3832,106.32551)"/>
<use xlink:href="#font_1_3" transform="matrix(14.528749,0,0,-14.528749,590.16079,109.50029)"/>
<path transform="matrix(2.0833333,0,0,-2.0833333,104.860408,89.82637)" d="M 0 -.7976 L -7.15459 -13.19014 L 7.15459 -13.19014 Z " fill="#ffffff"/>
<path transform="matrix(2.0833333,0,0,-2.0833333,104.860408,89.82637)" stroke-width=".79701" stroke-linecap="butt" stroke-miterlimit="10" stroke-linejoin="miter" fill="none" stroke="#000000" d="M 0 -.7976 L -7.15459 -13.19014 L 7.15459 -13.19014 Z "/>
<path transform="matrix(2.0833333,0,0,-2.0833333,104.860408,89.82637)" d="M 4.6963 0 C 4.6963 2.59372 2.59372 4.6963 0 4.6963 C -2.59372 4.6963 -4.6963 2.59372 -4.6963 0 C -4.6963 -2.59372 -2.59372 -4.6963 0 -4.6963 C 2.59372 -4.6963 4.6963 -2.59372 4.6963 0 Z M 0 0 " fill="#ffffff"/>
<path transform="matrix(2.0833333,0,0,-2.0833333,104.860408,89.82637)" stroke-width=".79701" stroke-linecap="butt" stroke-miterlimit="10" stroke-linejoin="miter" fill="none" stroke="#000000" d="M 4.6963 0 C 4.6963 2.59372 2.59372 4.6963 0 4.6963 C -2.59372 4.6963 -4.6963 2.59372 -4.6963 0 C -4.6963 -2.59372 -2.59372 -4.6963 0 -4.6963 C 2.59372 -4.6963 4.6963 -2.59372 4.6963 0 Z M 0 0 "/>
<path transform="matrix(2.0833333,0,0,-2.0833333,104.860408,89.82637)" stroke-width="1.59404" stroke-linecap="butt" stroke-miterlimit="10" stroke-linejoin="miter" fill="none" stroke="#000000" d="M -10.67967 -13.58864 L 10.67967 -13.58864 "/>
<path transform="matrix(2.0833333,0,0,-2.0833333,104.860408,89.82637)" stroke-width=".79701" stroke-linecap="butt" stroke-miterlimit="10" stroke-linejoin="miter" fill="none" stroke="#000000" d="M -10.67967 -13.58864 L -6.42783 -17.84048 "/>
<path transform="matrix(2.0833333,0,0,-2.0833333,104.860408,89.82637)" stroke-width=".79701" stroke-linecap="butt" stroke-miterlimit="10" stroke-linejoin="miter" fill="none" stroke="#000000" d="M -5.01039 -13.58864 L -.75856 -17.84048 "/>
<path transform="matrix(2.0833333,0,0,-2.0833333,104.860408,89.82637)" stroke-width=".79701" stroke-linecap="butt" stroke-miterlimit="10" stroke-linejoin="miter" fill="none" stroke="#000000" d="M .65886 -13.58864 L 4.9107 -17.84048 "/>
<path transform="matrix(2.0833333,0,0,-2.0833333,104.860408,89.82637)" stroke-width=".79701" stroke-linecap="butt" stroke-miterlimit="10" stroke-linejoin="miter" fill="none" stroke="#000000" d="M 6.32857 -13.58864 L 10.58041 -17.84048 "/>
<path transform="matrix(2.0833333,0,0,-2.0833333,104.860408,89.82637)" stroke-width=".79701" stroke-linecap="butt" stroke-miterlimit="10" stroke-linejoin="miter" fill="none" stroke="#000000" d="M 11.99783 -13.58864 L 16.2497 -17.84048 "/>
<path transform="matrix(2.0833333,0,0,-2.0833333,104.860408,89.82637)" d="M 113.38724 -140.93642 L 120.54182 -128.5439 L 106.23264 -128.5439 Z " fill="#ffffff"/>
<path transform="matrix(2.0833333,0,0,-2.0833333,104.860408,89.82637)" stroke-width=".79701" stroke-linecap="butt" stroke-miterlimit="10" stroke-linejoin="miter" fill="none" stroke="#000000" d="M 113.38724 -140.93642 L 120.54182 -128.5439 L 106.23264 -128.5439 Z "/>
<path transform="matrix(2.0833333,0,0,-2.0833333,104.860408,89.82637)" d="M 118.08354 -141.73404 C 118.08354 -139.1403 115.98096 -137.03772 113.38724 -137.03772 C 110.7935 -137.03772 108.69092 -139.1403 108.69092 -141.73404 C 108.69092 -144.32778 110.7935 -146.43036 113.38724 -146.43036 C 115.98096 -146.43036 118.08354 -144.32778 118.08354 -141.73404 Z M 113.38724 -141.73404 " fill="#ffffff"/>
<path transform="matrix(2.0833333,0,0,-2.0833333,104.860408,89.82637)" stroke-width=".79701" stroke-linecap="butt" stroke-miterlimit="10" stroke-linejoin="miter" fill="none" stroke="#000000" d="M 118.08354 -141.73404 C 118.08354 -139.1403 115.98096 -137.03772 113.38724 -137.03772 C 110.7935 -137.03772 108.69092 -139.1403 108.69092 -141.73404 C 108.69092 -144.32778 110.7935 -146.43036 113.38724 -146.43036 C 115.98096 -146.43036 118.08354 -144.32778 118.08354 -141.73404 Z M 113.38724 -141.73404 "/>
<path transform="matrix(2.0833333,0,0,-2.0833333,104.860408,89.82637)" stroke-width="1.59404" stroke-linecap="butt" stroke-miterlimit="10" stroke-linejoin="miter" fill="none" stroke="#000000" d="M 124.06691 -128.14539 L 102.70755 -128.14539 "/>
<path transform="matrix(2.0833333,0,0,-2.0833333,104.860408,89.82637)" stroke-width=".79701" stroke-linecap="butt" stroke-miterlimit="10" stroke-linejoin="miter" fill="none" stroke="#000000" d="M 102.70755 -128.14539 L 106.9594 -123.89355 "/>
<path transform="matrix(2.0833333,0,0,-2.0833333,104.860408,89.82637)" stroke-width=".79701" stroke-linecap="butt" stroke-miterlimit="10" stroke-linejoin="miter" fill="none" stroke="#000000" d="M 108.37683 -128.14539 L 112.62866 -123.89355 "/>
<path transform="matrix(2.0833333,0,0,-2.0833333,104.860408,89.82637)" stroke-width=".79701" stroke-linecap="butt" stroke-miterlimit="10" stroke-linejoin="miter" fill="none" stroke="#000000" d="M 114.0461 -128.14539 L 118.29794 -123.89355 "/>
<path transform="matrix(2.0833333,0,0,-2.0833333,104.860408,89.82637)" stroke-width=".79701" stroke-linecap="butt" stroke-miterlimit="10" stroke-linejoin="miter" fill="none" stroke="#000000" d="M 119.7158 -128.14539 L 123.96765 -123.89355 "/>
<path transform="matrix(2.0833333,0,0,-2.0833333,104.860408,89.82637)" stroke-width=".79701" stroke-linecap="butt" stroke-miterlimit="10" stroke-linejoin="miter" fill="none" stroke="#000000" d="M 125.38507 -128.14539 L 129.63694 -123.89355 "/>
<path transform="matrix(2.0833333,0,0,-2.0833333,104.860408,89.82637)" d="M 255.12128 -.7976 L 247.96669 -13.19014 L 262.27589 -13.19014 Z " fill="#ffffff"/>
<path transform="matrix(2.0833333,0,0,-2.0833333,104.860408,89.82637)" stroke-width=".79701" stroke-linecap="butt" stroke-miterlimit="10" stroke-linejoin="miter" fill="none" stroke="#000000" d="M 255.12128 -.7976 L 247.96669 -13.19014 L 262.27589 -13.19014 Z "/>
<path transform="matrix(2.0833333,0,0,-2.0833333,104.860408,89.82637)" d="M 259.8176 0 C 259.8176 2.59372 257.715 4.6963 255.12128 4.6963 C 252.52756 4.6963 250.42496 2.59372 250.42496 0 C 250.42496 -2.59372 252.52756 -4.6963 255.12128 -4.6963 C 257.715 -4.6963 259.8176 -2.59372 259.8176 0 Z M 255.12128 0 " fill="#ffffff"/>
<path transform="matrix(2.0833333,0,0,-2.0833333,104.860408,89.82637)" stroke-width=".79701" stroke-linecap="butt" stroke-miterlimit="10" stroke-linejoin="miter" fill="none" stroke="#000000" d="M 259.8176 0 C 259.8176 2.59372 257.715 4.6963 255.12128 4.6963 C 252.52756 4.6963 250.42496 2.59372 250.42496 0 C 250.42496 -2.59372 252.52756 -4.6963 255.12128 -4.6963 C 257.715 -4.6963 259.8176 -2.59372 259.8176 0 Z M 255.12128 0 "/>
<path transform="matrix(2.0833333,0,0,-2.0833333,104.860408,89.82637)" stroke-width="1.59404" stroke-linecap="butt" stroke-miterlimit="10" stroke-linejoin="miter" fill="none" stroke="#000000" d="M 244.4416 -13.58864 L 265.80097 -13.58864 "/>
<path transform="matrix(2.0833333,0,0,-2.0833333,104.860408,89.82637)" stroke-width=".79701" stroke-linecap="butt" stroke-miterlimit="10" stroke-linejoin="miter" fill="none" stroke="#000000" d="M 244.4416 -13.58864 L 248.69345 -17.84048 "/>
<path transform="matrix(2.0833333,0,0,-2.0833333,104.860408,89.82637)" stroke-width=".79701" stroke-linecap="butt" stroke-miterlimit="10" stroke-linejoin="miter" fill="none" stroke="#000000" d="M 250.11087 -13.58864 L 254.36272 -17.84048 "/>
<path transform="matrix(2.0833333,0,0,-2.0833333,104.860408,89.82637)" stroke-width=".79701" stroke-linecap="butt" stroke-miterlimit="10" stroke-linejoin="miter" fill="none" stroke="#000000" d="M 255.78015 -13.58864 L 260.032 -17.84048 "/>
<path transform="matrix(2.0833333,0,0,-2.0833333,104.860408,89.82637)" stroke-width=".79701" stroke-linecap="butt" stroke-miterlimit="10" stroke-linejoin="miter" fill="none" stroke="#000000" d="M 261.44984 -13.58864 L 265.7017 -17.84048 "/>
<path transform="matrix(2.0833333,0,0,-2.0833333,104.860408,89.82637)" stroke-width=".79701" stroke-linecap="butt" stroke-miterlimit="10" stroke-linejoin="miter" fill="none" stroke="#000000" d="M 267.11915 -13.58864 L 271.371 -17.84048 "/>
<path transform="matrix(2.0833333,0,0,-2.0833333,104.860408,89.82637)" stroke-width="1.19553" stroke-linecap="butt" stroke-miterlimit="10" stroke-linejoin="miter" fill="none" stroke="#000000" d="M 284.06587 -99.21382 L 312.41267 -99.21382 L 312.41267 -70.867038 L 284.06587 -70.867038 Z "/>
<symbol id="font_0_9">
<path d="M .059000009 .07000001 C .056 .055000005 .050000006 .032 .050000006 .027000003 C .050000006 .009000001 .064 0 .079 0 C .091000009 0 .10900001 .008000001 .11600001 .028 C .11700001 .030000002 .12900001 .077 .135 .102000009 L .157 .19200002 C .163 .21400002 .16900002 .23600002 .17400001 .259 C .17800002 .27600003 .186 .305 .187 .30900003 C .202 .34000004 .255 .43100003 .35 .43100003 C .395 .43100003 .404 .39400003 .404 .36100004 C .404 .33600004 .397 .30800004 .389 .27800004 L .361 .16200002 L .341 .086 C .337 .06600001 .328 .032 .328 .027000003 C .328 .009000001 .342 0 .357 0 C .388 0 .394 .025000003 .402 .057000005 C .416 .113000009 .453 .259 .462 .298 C .465 .31100003 .51800009 .43100003 .62700006 .43100003 C .6700001 .43100003 .68100008 .397 .68100008 .36100004 C .68100008 .30400003 .63900008 .19000001 .619 .13700001 C .6100001 .113000009 .60600009 .102000009 .60600009 .082 C .60600009 .035 .64100006 0 .688 0 C .78200009 0 .81900009 .14600002 .81900009 .15400002 C .81900009 .16400002 .81000009 .16400002 .80700007 .16400002 C .79700008 .16400002 .79700008 .16100002 .79200008 .14600002 C .77700009 .093 .74500009 .022000002 .69000008 .022000002 C .67300006 .022000002 .66600009 .032 .66600009 .055000005 C .66600009 .080000009 .6750001 .104 .6840001 .126 C .70300009 .17800002 .74500009 .28900004 .74500009 .34600003 C .74500009 .411 .70500007 .45300005 .63000008 .45300005 C .55500009 .45300005 .50400009 .40900005 .467 .35600005 C .46600003 .36900003 .463 .40300004 .435 .42700003 C .41 .448 .378 .45300005 .35300002 .45300005 C .263 .45300005 .21400002 .38900004 .19700001 .36600004 C .19200002 .42300005 .15 .45300005 .105000007 .45300005 C .059000009 .45300005 .040000008 .41400004 .031000002 .39600004 C .013000002 .36100004 0 .30200003 0 .29900003 C 0 .28900004 .01 .28900004 .012 .28900004 C .022000002 .28900004 .023 .29000003 .029000001 .31200005 C .046000005 .38300003 .06600001 .43100003 .10200001 .43100003 C .118 .43100003 .133 .42300005 .133 .38500003 C .133 .36400003 .13000001 .35300002 .11700001 .30100004 L .059000009 .07000001 Z "/>
</symbol>
<use xlink:href="#font_0_9" transform="matrix(20.755415,0,0,-20.755415,717.6748,271.688)"/>
<path transform="matrix(2.0833333,0,0,-2.0833333,104.860408,89.82637)" stroke-width="1.59404" stroke-linecap="butt" stroke-miterlimit="10" stroke-linejoin="miter" fill="none" stroke="#000000" d="M 298.23927 0 L 298.23927 -70.26927 "/>
<path transform="matrix(2.0833333,0,0,-2.0833333,104.860408,89.82637)" stroke-width="1.59404" stroke-linecap="butt" stroke-miterlimit="10" stroke-linejoin="miter" fill="none" stroke="#000000" d="M 40.51782 14.74547 L 70.92455 -149.22061 "/>
<path transform="matrix(2.0833333,0,0,-2.0833333,104.860408,89.82637)" stroke-width="1.59404" stroke-linecap="butt" stroke-miterlimit="10" stroke-linejoin="miter" fill="none" stroke="#000000" d="M 150.72859 -163.2917 L 217.77993 21.55766 "/>
<path transform="matrix(2.0833333,0,0,-2.0833333,104.860408,89.82637)" stroke-width="1.59404" stroke-linecap="butt" stroke-miterlimit="10" stroke-linejoin="miter" fill="none" stroke="#000000" d="M -43.11797 0 L -43.11797 -56.69362 "/>
<path transform="matrix(2.0833333,0,0,-2.0833333,104.860408,89.82637)" stroke-width="1.19553" stroke-linecap="butt" stroke-miterlimit="10" stroke-linejoin="miter" fill="none" stroke="#000000" d="M -43.11797 -63.7803 L -43.11797 -86.97034 "/>
<path transform="matrix(0,2.0833333,2.0833333,0,15.031305,264.32304)" d="M 6.66628 0 L 1.93044 1.79556 L 3.5108 0 L 1.93044 -1.79556 Z "/>
<path transform="matrix(0,2.0833333,2.0833333,0,15.031305,264.32304)" stroke-width="1.19553" stroke-linecap="butt" stroke-miterlimit="10" stroke-linejoin="miter" fill="none" stroke="#000000" d="M 6.66628 0 L 1.93044 1.79556 L 3.5108 0 L 1.93044 -1.79556 Z "/>
<symbol id="font_0_7">
<path d="M .265 .32500003 L .362 .32500003 C .43700005 .32500003 .445 .30900003 .445 .28 C .445 .273 .445 .261 .43800003 .231 C .43600006 .22600001 .435 .22200002 .435 .22000002 C .435 .21200001 .44100005 .208 .44700004 .208 C .45700003 .208 .45700003 .21100001 .462 .22900002 L .517 .446 C .52000007 .45700003 .52000007 .45900003 .52000007 .462 C .52000007 .46400003 .51800009 .47300003 .508 .47300003 C .49800004 .47300003 .49700005 .46800003 .49300004 .45200003 C .47200007 .374 .449 .356 .36400003 .356 L .273 .356 L .337 .61 C .34600003 .64500007 .347 .64900007 .39100004 .64900007 L .52300009 .64900007 C .646 .64900007 .669 .61600008 .669 .53900006 C .669 .51600006 .669 .512 .66600009 .485 C .66400006 .47200004 .66400006 .47000004 .66400006 .467 C .66400006 .462 .66700008 .455 .67600008 .455 C .68700006 .455 .688 .46100004 .69000008 .48000003 L .71000006 .65300008 C .71300008 .68 .70800009 .68 .683 .68 L .193 .68 C .17300001 .68 .163 .68 .163 .66 C .163 .64900007 .172 .64900007 .19100002 .64900007 C .228 .64900007 .25599999 .64900007 .25599999 .63100007 C .25599999 .62700006 .25599999 .625 .251 .60700008 L .119 .078 C .109 .039 .10700001 .031000002 .027999998 .031000002 C .011 .031000002 0 .031000002 0 .012 C 0 0 .011999998 0 .015000001 0 C .044 0 .118 .003 .147 .003 C .18 .003 .263 0 .296 0 C .305 0 .31700004 0 .31700004 .019000002 C .31700004 .027 .311 .029000001 .311 .030000002 C .30800004 .031000002 .306 .031000002 .283 .031000002 C .26100005 .031000002 .25599999 .031000002 .23100002 .033 C .202 .036000004 .19900002 .040000004 .19900002 .053000004 C .19900002 .055000005 .19900002 .061000006 .20300001 .076000008 L .265 .32500003 Z "/>
</symbol>
<use xlink:href="#font_0_7" transform="matrix(20.755415,0,0,-20.755415,7.705366,304.10136)"/>
<path transform="matrix(2.0833333,0,0,-2.0833333,104.860408,89.82637)" stroke-width="1.19553" stroke-linecap="butt" stroke-miterlimit="10" stroke-linejoin="miter" fill="none" stroke="#000000" d="M 113.38724 28.3468 L 113.38724 5.15677 "/>
<path transform="matrix(0,2.0833333,2.0833333,0,341.0838,72.39158)" d="M 6.66628 0 L 1.93044 1.79556 L 3.5108 0 L 1.93044 -1.79556 Z "/>
<path transform="matrix(0,2.0833333,2.0833333,0,341.0838,72.39158)" stroke-width="1.19553" stroke-linecap="butt" stroke-miterlimit="10" stroke-linejoin="miter" fill="none" stroke="#000000" d="M 6.66628 0 L 1.93044 1.79556 L 3.5108 0 L 1.93044 -1.79556 Z "/>
<symbol id="font_0_8">
<path d="M .45600004 .582 C .45700003 .58800008 .45900006 .59300008 .45900006 .6 C .45900006 .61700007 .44700004 .62700006 .43 .62700006 C .42000003 .62700006 .393 .62 .389 .584 C .371 .62100008 .33600004 .6470001 .296 .6470001 C .18200001 .6470001 .058000007 .507 .058000007 .36300005 C .058000007 .26400004 .119 .20500002 .19100002 .20500002 C .25 .20500002 .297 .252 .30700005 .263 L .30800004 .26200003 C .287 .17300001 .27500005 .132 .27500005 .13000001 C .27100004 .12100001 .237 .022 .13100001 .022 C .112 .022 .079 .023000002 .051 .032000007 C .081 .04100001 .09200001 .067 .09200001 .08400001 C .09200001 .10000001 .081 .11900001 .054000006 .11900001 C .032 .11900001 0 .10100001 0 .061000006 C 0 .02000001 .037 0 .133 0 C .25800003 0 .33000005 .07800001 .34500004 .13800001 L .45600004 .582 M .32600004 .333 C .32 .307 .297 .282 .27500005 .263 C .254 .24500002 .223 .22700002 .194 .22700002 C .14400001 .22700002 .12900001 .279 .12900001 .319 C .12900001 .367 .158 .485 .185 .536 C .21200001 .58500006 .255 .625 .297 .625 C .36300005 .625 .37700004 .544 .37700004 .53900006 C .37700004 .53400006 .375 .528 .374 .52400007 L .32600004 .333 Z "/>
</symbol>
<use xlink:href="#font_0_8" transform="matrix(20.755415,0,0,-20.755415,336.06968,111.18125)"/>
<path transform="matrix(2.0833333,0,0,-2.0833333,104.860408,89.82637)" stroke-width="1.59404" stroke-linecap="butt" stroke-miterlimit="10" stroke-linejoin="miter" fill="none" stroke="#000000" d="M 28.3468 -85.0404 L 49.6069 -85.0404 "/>
<path transform="matrix(2.0833333,0,0,-2.0833333,104.860408,89.82637)" stroke-width=".79701" stroke-linecap="butt" stroke-miterlimit="10" stroke-linejoin="miter" fill="none" stroke="#000000" d="M 28.3468 -85.0404 L 32.59865 -89.29225 "/>
<path transform="matrix(2.0833333,0,0,-2.0833333,104.860408,89.82637)" stroke-width=".79701" stroke-linecap="butt" stroke-miterlimit="10" stroke-linejoin="miter" fill="none" stroke="#000000" d="M 35.43349 -85.0404 L 39.68535 -89.29225 "/>
<path transform="matrix(2.0833333,0,0,-2.0833333,104.860408,89.82637)" stroke-width=".79701" stroke-linecap="butt" stroke-miterlimit="10" stroke-linejoin="miter" fill="none" stroke="#000000" d="M 42.5202 -85.0404 L 46.77203 -89.29225 "/>
<path transform="matrix(2.0833333,0,0,-2.0833333,104.860408,89.82637)" stroke-width=".79701" stroke-linecap="butt" stroke-miterlimit="10" stroke-linejoin="miter" fill="none" stroke="#000000" d="M 49.6069 -85.0404 L 53.85875 -89.29225 "/>
<path transform="matrix(2.0833333,0,0,-2.0833333,104.860408,89.82637)" stroke-width=".79701" stroke-linecap="butt" stroke-miterlimit="10" stroke-linejoin="miter" fill="none" stroke="#000000" d="M 38.85109 -80.93219 C 38.68468 -75.50401 46.18478 -67.52974 51.61298 -67.36331 "/>
<path transform="matrix(.06375,2.0822499,2.0822499,-.06375,185.64308,253.3022)" d="M 5.44046 0 L 1.28699 1.5706 L 2.66432 0 L 1.28699 -1.5706 Z "/>
<path transform="matrix(.06375,2.0822499,2.0822499,-.06375,185.64308,253.3022)" stroke-width=".79701" stroke-linecap="butt" stroke-miterlimit="10" stroke-linejoin="miter" fill="none" stroke="#000000" d="M 5.44046 0 L 1.28699 1.5706 L 2.66432 0 L 1.28699 -1.5706 Z "/>
<path transform="matrix(2.0822499,-.06375,-.06375,-2.0822499,207.2545,230.32375)" d="M 5.44046 0 L 1.28699 1.5706 L 2.66432 0 L 1.28699 -1.5706 Z "/>
<path transform="matrix(2.0822499,-.06375,-.06375,-2.0822499,207.2545,230.32375)" stroke-width=".79701" stroke-linecap="butt" stroke-miterlimit="10" stroke-linejoin="miter" fill="none" stroke="#000000" d="M 5.44046 0 L 1.28699 1.5706 L 2.66432 0 L 1.28699 -1.5706 Z "/>
<symbol id="font_0_2">
<path d="M .41300003 .511 C .41300003 .577 .395 .716 .293 .716 C .15400002 .716 0 .43400003 0 .20500002 C 0 .111 .029 0 .12 0 C .261 0 .41300003 .28700004 .41300003 .511 M .106 .374 C .123 .43800003 .143 .518 .183 .589 C .21000001 .638 .24700001 .694 .29200004 .694 C .34100003 .694 .34700004 .63 .34700004 .573 C .34700004 .524 .33900003 .47300003 .31500004 .374 L .106 .374 M .30600003 .34200005 C .29500003 .29600004 .27400003 .21100001 .23600003 .13900002 C .201 .071 .16300002 .022000002 .12 .022000002 C .087000008 .022000002 .066 .051000004 .066 .14400001 C .066 .18600002 .072000008 .24400002 .098 .34200005 L .30600003 .34200005 Z "/>
</symbol>
<use xlink:href="#font_0_2" transform="matrix(20.755415,0,0,-20.755415,169.89258,247.10468)"/>
<symbol id="font_2_1">
<path d="M .22600001 .63600006 C .22600001 .66300007 .224 .66400006 .19600001 .66400006 C .132 .601 .041 .6 0 .6 L 0 .564 C .023999997 .564 .09000001 .564 .14500001 .592 L .14500001 .082 C .14500001 .049000004 .14500001 .036000004 .04500001 .036000004 L .0069999995 .036000004 L .0069999995 0 C .024999999 .001 .148 .004 .185 .004 C .21600002 .004 .34200005 .001 .36400003 0 L .36400003 .036000004 L .32600004 .036000004 C .22600001 .036000004 .22600001 .049000004 .22600001 .082 L .22600001 .63600006 Z "/>
</symbol>
<use xlink:href="#font_2_1" transform="matrix(14.528749,0,0,-14.528749,180.34822,249.98888)"/>
<path transform="matrix(2.0833333,0,0,-2.0833333,104.860408,89.82637)" stroke-width="1.59404" stroke-linecap="butt" stroke-miterlimit="10" stroke-linejoin="miter" fill="none" stroke="#000000" d="M 188.50609 -85.0404 L 209.76619 -85.0404 "/>
<path transform="matrix(2.0833333,0,0,-2.0833333,104.860408,89.82637)" stroke-width=".79701" stroke-linecap="butt" stroke-miterlimit="10" stroke-linejoin="miter" fill="none" stroke="#000000" d="M 188.50609 -85.0404 L 192.75794 -89.29225 "/>
<path transform="matrix(2.0833333,0,0,-2.0833333,104.860408,89.82637)" stroke-width=".79701" stroke-linecap="butt" stroke-miterlimit="10" stroke-linejoin="miter" fill="none" stroke="#000000" d="M 195.59279 -85.0404 L 199.84464 -89.29225 "/>
<path transform="matrix(2.0833333,0,0,-2.0833333,104.860408,89.82637)" stroke-width=".79701" stroke-linecap="butt" stroke-miterlimit="10" stroke-linejoin="miter" fill="none" stroke="#000000" d="M 202.67949 -85.0404 L 206.93134 -89.29225 "/>
<path transform="matrix(2.0833333,0,0,-2.0833333,104.860408,89.82637)" stroke-width=".79701" stroke-linecap="butt" stroke-miterlimit="10" stroke-linejoin="miter" fill="none" stroke="#000000" d="M 209.76619 -85.0404 L 214.01804 -89.29225 "/>
<path transform="matrix(2.0833333,0,0,-2.0833333,104.860408,89.82637)" stroke-width=".79701" stroke-linecap="butt" stroke-miterlimit="10" stroke-linejoin="miter" fill="none" stroke="#000000" d="M 199.03592 -80.93149 C 198.9406 -77.02438 192.27027 -70.67148 188.36316 -70.76682 "/>
<path transform="matrix(.050791667,2.0826042,2.0826042,-.050791667,519.3933,253.2999)" d="M 5.44046 0 L 1.28699 1.5706 L 2.66432 0 L 1.28699 -1.5706 Z "/>
<path transform="matrix(.050791667,2.0826042,2.0826042,-.050791667,519.3933,253.2999)" stroke-width=".79701" stroke-linecap="butt" stroke-miterlimit="10" stroke-linejoin="miter" fill="none" stroke="#000000" d="M 5.44046 0 L 1.28699 1.5706 L 2.66432 0 L 1.28699 -1.5706 Z "/>
<path transform="matrix(-2.0826042,.050791667,.050791667,2.0826042,502.4174,237.132)" d="M 5.44046 0 L 1.28699 1.5706 L 2.66432 0 L 1.28699 -1.5706 Z "/>
<path transform="matrix(-2.0826042,.050791667,.050791667,2.0826042,502.4174,237.132)" stroke-width=".79701" stroke-linecap="butt" stroke-miterlimit="10" stroke-linejoin="miter" fill="none" stroke="#000000" d="M 5.44046 0 L 1.28699 1.5706 L 2.66432 0 L 1.28699 -1.5706 Z "/>
<use xlink:href="#font_0_2" transform="matrix(20.755415,0,0,-20.755415,518.9488,251.69216)"/>
<symbol id="font_2_2">
<path d="M .442 .18200001 L .40800003 .18200001 C .40500004 .16000001 .39500005 .101 .38200004 .091000009 C .374 .085 .29700003 .085 .28300003 .085 L .099 .085 C .20400003 .178 .23900002 .20600002 .29900003 .25300003 C .37300004 .312 .442 .374 .442 .469 C .442 .59000006 .33600004 .66400006 .20800004 .66400006 C .084 .66400006 0 .577 0 .485 C 0 .43400003 .043000007 .42900003 .053000004 .42900003 C .077 .42900003 .10600001 .446 .10600001 .48200003 C .10600001 .5 .099 .535 .047000007 .535 C .078 .606 .146 .628 .19300002 .628 C .293 .628 .34500004 .55 .34500004 .469 C .34500004 .38200004 .28300003 .31300003 .25100003 .277 L .010000005 .039 C 0 .030000002 0 .028 0 0 L .41200004 0 L .442 .18200001 Z "/>
</symbol>
<use xlink:href="#font_2_2" transform="matrix(14.528749,0,0,-14.528749,528.7361,254.57636)"/>
<path transform="matrix(2.0833333,0,0,-2.0833333,104.860408,89.82637)" stroke-width=".3985" stroke-linecap="butt" stroke-miterlimit="10" stroke-linejoin="miter" fill="none" stroke="#000000" d="M 40.51782 14.74547 C 44.94269 13.13495 46.66754 19.17163 49.02194 23.24959 "/>
<symbol id="font_0_3">
<path d="M .201 .56700006 C .20600002 .588 .216 .62600007 .216 .63100007 C .216 .648 .20400001 .65800008 .187 .65800008 C .18400002 .65800008 .156 .657 .147 .62200006 L .0029999987 .042999999 C 0 .031000004 0 .029 0 .026999996 C 0 .0119999949 .011 0 .028 0 C .049000004 0 .061000006 .017999992 .063 .020999998 C .067 .030000002 .080000009 .082 .118 .236 C .15 .209 .19500001 .205 .215 .205 C .28500004 .205 .324 .25 .34800003 .278 C .35700003 .23300001 .39400003 .205 .43800003 .205 C .47300003 .205 .49600003 .228 .5120001 .26000003 C .52900007 .296 .54200008 .357 .54200008 .35900004 C .54200008 .36900003 .533 .36900003 .53 .36900003 C .52 .36900003 .51900008 .365 .51600006 .351 C .49900005 .286 .48100005 .22700002 .44000004 .22700002 C .41300003 .22700002 .41000004 .25300003 .41000004 .273 C .41000004 .29500003 .42200003 .342 .43 .37700004 L .45800004 .485 C .46100004 .5 .47100006 .53800007 .475 .55300006 C .48000006 .57600006 .49000005 .614 .49000005 .62 C .49000005 .638 .47600005 .647 .46100004 .647 C .45600004 .647 .43 .646 .42200003 .61200007 L .37500004 .425 C .363 .375 .35200004 .333 .349 .323 C .34800003 .31800003 .3 .22700002 .21900001 .22700002 C .16900002 .22700002 .14500001 .26000003 .14500001 .314 C .14500001 .343 .15200001 .371 .15900001 .39900003 L .201 .56700006 Z "/>
</symbol>
<use xlink:href="#font_0_3" transform="matrix(20.755415,0,0,-20.755415,214.9435,48.324144)"/>
<symbol id="font_1_4">
<path d="M .772 .60200008 C .781 .63900008 .78300008 .647 .85700008 .647 C .87900009 .647 .89100006 .647 .89100006 .669 C .89100006 .67300006 .888 .683 .87500008 .683 C .846 .683 .77300009 .679 .744 .679 C .72700008 .679 .69200006 .679 .675 .68 C .65500006 .68100008 .63100007 .683 .61200007 .683 C .606 .683 .591 .683 .591 .661 C .591 .647 .60300007 .647 .623 .647 C .624 .647 .643 .647 .661 .64500007 C .68200007 .643 .684 .64100006 .684 .63100007 C .684 .63000008 .684 .624 .68 .609 L .62100008 .37300004 L .286 .37300004 L .344 .605 C .35300002 .63900008 .35500003 .647 .43200005 .647 C .449 .647 .462 .647 .462 .669 C .462 .67300006 .459 .683 .44600005 .683 C .41700004 .683 .344 .679 .315 .679 C .298 .679 .263 .679 .24600002 .68 C .22600001 .68100008 .20200002 .683 .183 .683 C .177 .683 .162 .683 .162 .661 C .162 .647 .17400001 .647 .194 .647 C .195 .647 .21400002 .647 .23200003 .64500007 C .25300003 .643 .255 .64100006 .255 .63100007 C .255 .629 .255 .624 .25100003 .609 L .118 .078 C .11 .044000005 .107999999 .036000004 .030000002 .036000004 C .012999997 .036000004 0 .036000004 0 .015000001 C 0 .0050000005 .0069999995 0 .015999996 0 C .045 0 .117 .004 .146 .004 C .163 .004 .19800002 .004 .215 .003 C .23500002 .002 .26000003 0 .279 0 C .284 0 .3 0 .3 .021000002 C .3 .036000004 .29000003 .036000004 .26700003 .036000004 C .25100003 .036000004 .24700001 .036000004 .229 .038000004 C .20700002 .041 .20700002 .043 .20700002 .053000004 C .20700002 .054 .20700002 .060000004 .211 .075 L .277 .337 L .61200007 .337 L .54700008 .078 C .53900006 .044000005 .537 .036000004 .459 .036000004 C .44200004 .036000004 .42900003 .036000004 .42900003 .015000001 C .42900003 .0050000005 .436 0 .445 0 C .47400005 0 .546 .004 .57500007 .004 C .592 .004 .62700006 .004 .64400008 .003 C .66400006 .002 .689 0 .708 0 C .71300008 0 .72900006 0 .72900006 .021000002 C .72900006 .036000004 .71900007 .036000004 .69600006 .036000004 C .68 .036000004 .67600008 .036000004 .65800008 .038000004 C .63600006 .041 .63600006 .043 .63600006 .053000004 C .63600006 .059000005 .639 .069000009 .64000007 .075 L .772 .60200008 Z "/>
</symbol>
<use xlink:href="#font_1_4" transform="matrix(14.528749,0,0,-14.528749,227.82956,46.955537)"/>
<path transform="matrix(2.0833333,0,0,-2.0833333,104.860408,89.82637)" stroke-width=".3985" stroke-linecap="butt" stroke-miterlimit="10" stroke-linejoin="miter" fill="none" stroke="#000000" d="M 150.72859 -163.2917 C 155.39165 -164.98894 159.586 -161.91992 162.06714 -157.62244 "/>
<use xlink:href="#font_0_3" transform="matrix(20.755415,0,0,-20.755415,450.4518,425.1366)"/>
<use xlink:href="#font_1_4" transform="matrix(14.528749,0,0,-14.528749,463.3379,423.76594)"/>
<path transform="matrix(2.0833333,0,0,-2.0833333,104.860408,89.82637)" stroke-width=".3985" stroke-linecap="butt" stroke-miterlimit="10" stroke-linejoin="miter" fill="none" stroke="#000000" d="M 298.23927 0 C 302.66413 -1.61052 304.38899 4.42615 306.74339 8.50412 "/>
<use xlink:href="#font_0_3" transform="matrix(20.755415,0,0,-20.755415,751.856,79.04286)"/>
<use xlink:href="#font_1_4" transform="matrix(14.528749,0,0,-14.528749,764.74209,77.674289)"/>
<symbol id="font_0_4">
<path d="M .14400001 .115 C .10400002 .048 .065 .034 .021000002 .031000002 C .009000003 .030000002 0 .030000002 0 .011000001 C 0 .0050000005 .0050000029 0 .013 0 C .040000004 0 .07100001 .003 .09900001 .003 C .13200002 .003 .16700001 0 .19900002 0 C .20500002 0 .21800003 0 .21800003 .019000002 C .21800003 .030000002 .20900002 .031000002 .20200002 .031000002 C .17900002 .033 .15500002 .041 .15500002 .066 C .15500002 .078 .16100002 .089 .16900002 .10300001 L .245 .231 L .49600003 .231 C .49800007 .21000001 .512 .074 .512 .064 C .512 .034 .46000005 .031000002 .44000004 .031000002 C .42600004 .031000002 .41600005 .031000002 .41600005 .011000001 C .41600005 0 .42800004 0 .43000005 0 C .47100006 0 .514 .003 .555 .003 C .58 .003 .643 0 .668 0 C .674 0 .686 0 .686 .020000002 C .686 .031000002 .676 .031000002 .663 .031000002 C .601 .031000002 .601 .038000004 .598 .067 L .537 .69200006 C .535 .712 .535 .716 .518 .716 C .502 .716 .49800007 .70900008 .492 .69900009 L .14400001 .115 M .26400004 .26200003 L .46100004 .592 L .493 .26200003 L .26400004 .26200003 Z "/>
</symbol>
<use xlink:href="#font_0_4" transform="matrix(20.755415,0,0,-20.755415,97.80351,201.1701)"/>
<symbol id="font_0_5">
<path d="M .11800001 .078 C .108 .039 .106 .031000002 .027000003 .031000002 C .009999998 .031000002 0 .031000002 0 .011000001 C 0 0 .009 0 .027000003 0 L .38400004 0 C .54200008 0 .66 .11800001 .66 .216 C .66 .28800003 .60200008 .34600003 .50500008 .35700003 C .609 .37600003 .71400007 .45000003 .71400007 .545 C .71400007 .619 .64800009 .683 .52800008 .683 L .192 .683 C .17300001 .683 .16300002 .683 .16300002 .66300007 C .16300002 .652 .17200002 .652 .19100002 .652 C .19300002 .652 .21200001 .652 .22900003 .65000006 C .24700001 .648 .256 .647 .256 .634 C .256 .63000008 .25500003 .62700006 .252 .615 L .11800001 .078 M .26900003 .36600004 L .33100004 .614 C .34000004 .64900007 .342 .652 .38500003 .652 L .51400008 .652 C .60200008 .652 .623 .59300008 .623 .549 C .623 .46100004 .53700008 .36600004 .41500003 .36600004 L .26900003 .36600004 M .224 .031000002 C .21000001 .031000002 .208 .031000002 .20200002 .032 C .192 .033 .18900001 .034 .18900001 .042000005 C .18900001 .045 .18900001 .047000003 .194 .065000008 L .263 .344 L .45200003 .344 C .54800006 .344 .56700006 .27 .56700006 .22700002 C .56700006 .128 .47800005 .031000002 .36 .031000002 L .224 .031000002 Z "/>
</symbol>
<use xlink:href="#font_0_5" transform="matrix(20.755415,0,0,-20.755415,333.55924,287.94096)"/>
<symbol id="font_0_6">
<path d="M .71000006 .71700009 C .71000006 .72 .708 .72700008 .699 .72700008 C .69600006 .72700008 .69500008 .7260001 .684 .71500006 L .614 .6380001 C .605 .65200009 .559 .72700008 .448 .72700008 C .22500001 .72700008 0 .50600007 0 .27400003 C 0 .109000008 .118000019 0 .271 0 C .358 0 .43400003 .040000004 .487 .086 C .58000007 .16800002 .597 .25900004 .597 .26200003 C .597 .272 .587 .272 .58500006 .272 C .579 .272 .574 .27 .572 .26200003 C .563 .23300001 .54 .162 .47100003 .104 C .402 .048 .33900003 .031000004 .287 .031000004 C .19700001 .031000004 .091000009 .083000008 .091000009 .23900001 C .091000009 .29600004 .112 .45800004 .21200003 .57500007 C .273 .646 .367 .69600006 .45600004 .69600006 C .558 .69600006 .61700007 .619 .61700007 .503 C .61700007 .46300004 .614 .46200005 .614 .45200003 C .614 .44200004 .625 .44200004 .629 .44200004 C .642 .44200004 .642 .44400005 .647 .46200005 L .71000006 .71700009 Z "/>
</symbol>
<use xlink:href="#font_0_6" transform="matrix(20.755415,0,0,-20.755415,629.23367,201.62673)"/>
</g>
</svg>
