<?xml version="1.0" encoding="UTF-8" standalone="no"?>
<!DOCTYPE svg PUBLIC "-//W3C//DTD SVG 1.1//EN" "http://www.w3.org/Graphics/SVG/1.1/DTD/svg11.dtd">
<svg xmlns="http://www.w3.org/2000/svg" xmlns:xlink="http://www.w3.org/1999/xlink" version="1.1" width="1189.9944pt" height="391.73335pt" viewBox="0 0 1189.9944 391.73335">
<g enable-background="new">
<path transform="matrix(2.0833333,0,0,-2.0833333,598.0062,184.07152)" d="M -7.08669 -7.08669 L 7.0866806 -7.08669 L 7.0866806 7.0866806 L -7.08669 7.0866806 Z "/>
<path transform="matrix(2.0833333,0,0,-2.0833333,598.0062,184.07152)" stroke-width=".3985" stroke-linecap="butt" stroke-miterlimit="10" stroke-linejoin="miter" fill="none" stroke="#000000" d="M -7.08669 -7.08669 L 7.0866806 -7.08669 L 7.0866806 7.0866806 L -7.08669 7.0866806 Z "/>
<path transform="matrix(2.0833333,0,0,-2.0833333,598.0062,184.07152)" d="M 42.5202 28.3468 C 42.5202 36.17465 36.17465 42.5202 28.3468 42.5202 C 20.51895 42.5202 14.1734 36.17465 14.1734 28.3468 C 14.1734 20.51895 20.51895 14.1734 28.3468 14.1734 C 36.17465 14.1734 42.5202 20.51895 42.5202 28.3468 Z M 28.3468 28.3468 " fill="#ff0000"/>
<path transform="matrix(2.0833333,0,0,-2.0833333,598.0062,184.07152)" stroke-width=".3985" stroke-linecap="butt" stroke-miterlimit="10" stroke-linejoin="miter" fill="none" stroke="#000000" d="M 42.5202 28.3468 C 42.5202 36.17465 36.17465 42.5202 28.3468 42.5202 C 20.51895 42.5202 14.1734 36.17465 14.1734 28.3468 C 14.1734 20.51895 20.51895 14.1734 28.3468 14.1734 C 36.17465 14.1734 42.5202 20.51895 42.5202 28.3468 Z M 28.3468 28.3468 "/>
<path transform="matrix(2.0833333,0,0,-2.0833333,598.0062,184.07152)" d="M -14.1734 -28.3468 C -14.1734 -20.51895 -20.51895 -14.1734 -28.3468 -14.1734 C -36.17465 -14.1734 -42.5202 -20.51895 -42.5202 -28.3468 C -42.5202 -36.17465 -36.17465 -42.5202 -28.3468 -42.5202 C -20.51895 -42.5202 -14.1734 -36.17465 -14.1734 -28.3468 Z M -28.3468 -28.3468 " fill="#ff0000"/>
<path transform="matrix(2.0833333,0,0,-2.0833333,598.0062,184.07152)" stroke-width=".3985" stroke-linecap="butt" stroke-miterlimit="10" stroke-linejoin="miter" fill="none" stroke="#000000" d="M -14.1734 -28.3468 C -14.1734 -20.51895 -20.51895 -14.1734 -28.3468 -14.1734 C -36.17465 -14.1734 -42.5202 -20.51895 -42.5202 -28.3468 C -42.5202 -36.17465 -36.17465 -42.5202 -28.3468 -42.5202 C -20.51895 -42.5202 -14.1734 -36.17465 -14.1734 -28.3468 Z M -28.3468 -28.3468 "/>
<path transform="matrix(2.0833333,0,0,-2.0833333,598.0062,184.07152)" d="M -14.1734 28.3468 C -14.1734 36.17465 -20.51895 42.5202 -28.3468 42.5202 C -36.17465 42.5202 -42.5202 36.17465 -42.5202 28.3468 C -42.5202 20.51895 -36.17465 14.1734 -28.3468 14.1734 C -20.51895 14.1734 -14.1734 20.51895 -14.1734 28.3468 Z M -28.3468 28.3468 " fill="#ff0000"/>
<path transform="matrix(2.0833333,0,0,-2.0833333,598.0062,184.07152)" stroke-width=".3985" stroke-linecap="butt" stroke-miterlimit="10" stroke-linejoin="miter" fill="none" stroke="#000000" d="M -14.1734 28.3468 C -14.1734 36.17465 -20.51895 42.5202 -28.3468 42.5202 C -36.17465 42.5202 -42.5202 36.17465 -42.5202 28.3468 C -42.5202 20.51895 -36.17465 14.1734 -28.3468 14.1734 C -20.51895 14.1734 -14.1734 20.51895 -14.1734 28.3468 Z M -28.3468 28.3468 "/>
<path transform="matrix(2.0833333,0,0,-2.0833333,598.0062,184.07152)" d="M 42.5202 -28.3468 C 42.5202 -20.51895 36.17465 -14.1734 28.3468 -14.1734 C 20.51895 -14.1734 14.1734 -20.51895 14.1734 -28.3468 C 14.1734 -36.17465 20.51895 -42.5202 28.3468 -42.5202 C 36.17465 -42.5202 42.5202 -36.17465 42.5202 -28.3468 Z M 28.3468 -28.3468 " fill="#ff0000"/>
<path transform="matrix(2.0833333,0,0,-2.0833333,598.0062,184.07152)" stroke-width=".3985" stroke-linecap="butt" stroke-miterlimit="10" stroke-linejoin="miter" fill="none" stroke="#000000" d="M 42.5202 -28.3468 C 42.5202 -20.51895 36.17465 -14.1734 28.3468 -14.1734 C 20.51895 -14.1734 14.1734 -20.51895 14.1734 -28.3468 C 14.1734 -36.17465 20.51895 -42.5202 28.3468 -42.5202 C 36.17465 -42.5202 42.5202 -36.17465 42.5202 -28.3468 Z M 28.3468 -28.3468 "/>
<path transform="matrix(2.0833333,0,0,-2.0833333,598.0062,184.07152)" stroke-width=".79701" stroke-linecap="butt" stroke-miterlimit="10" stroke-linejoin="miter" fill="none" stroke="#000000" d="M 28.3468 28.3468 L -28.3468 -28.3468 "/>
<path transform="matrix(2.0833333,0,0,-2.0833333,598.0062,184.07152)" stroke-width=".79701" stroke-linecap="butt" stroke-miterlimit="10" stroke-linejoin="miter" fill="none" stroke="#000000" d="M -28.3468 28.3468 L 28.3468 -28.3468 "/>
<path transform="matrix(2.0833333,0,0,-2.0833333,598.0062,184.07152)" stroke-width=".79701" stroke-linecap="butt" stroke-miterlimit="10" stroke-linejoin="miter" fill="none" stroke="#ff0000" d="M 7.28593 0 L 84.24341 0 "/>
<path transform="matrix(2.0833333,0,0,-2.0833333,774.34359,184.07152)" stroke-width=".79701" stroke-linecap="round" stroke-linejoin="round" fill="none" stroke="#ff0000" d="M -2.55046 3.11095 C -2.0845 1.24435 -1.04614 .36295 0 0 C -1.04614 -.36295 -2.0845 -1.24435 -2.55046 -3.11095 "/>
<symbol id="font_0_1">
<path d="M .305 .31300003 C .311 .33900003 .334 .43100003 .404 .43100003 C .409 .43100003 .433 .43100003 .454 .418 C .426 .41300003 .40600003 .388 .40600003 .36400003 C .40600003 .34800003 .417 .32900004 .444 .32900004 C .46600003 .32900004 .498 .34700004 .498 .38700003 C .498 .43900005 .439 .45300005 .405 .45300005 C .347 .45300005 .312 .40000005 .3 .37700004 C .275 .44300003 .221 .45300005 .19200002 .45300005 C .08800001 .45300005 .031000002 .32400004 .031000002 .29900003 C .031000002 .28900004 .041 .28900004 .043000007 .28900004 C .051000008 .28900004 .054000006 .291 .056 .3 C .09 .40600003 .156 .43100003 .19000001 .43100003 C .209 .43100003 .244 .42200003 .244 .36400003 C .244 .33300004 .22700002 .26600004 .19000001 .126 C .17400001 .064 .13900002 .022000002 .095000009 .022000002 C .08900001 .022000002 .06600001 .022000002 .045 .035 C .07000001 .040000004 .09200001 .061 .09200001 .089 C .09200001 .116000007 .07000001 .124000009 .055000009 .124000009 C .025 .124000009 0 .098000008 0 .06600001 C 0 .020000002 .050000006 0 .094000007 0 C .16000001 0 .19600001 .07000001 .19900002 .076000008 C .21100001 .039 .24700003 0 .307 0 C .41 0 .467 .12900001 .467 .15400002 C .467 .16400002 .458 .16400002 .455 .16400002 C .446 .16400002 .444 .16000001 .442 .15300001 C .409 .046 .341 .022000002 .30900003 .022000002 C .27 .022000002 .254 .054 .254 .08800001 C .254 .11000001 .26 .13200002 .271 .17600002 L .305 .31300003 Z "/>
</symbol>
<use xlink:href="#font_0_1" transform="matrix(20.755415,0,0,-20.755415,783.52279,187.2123)" fill="#ff0000"/>
<symbol id="font_1_1">
<path d="M .11800001 .078 C .109000008 .044000005 .107 .036000004 .030000002 .036000004 C .012999997 .036000004 0 .036000004 0 .015000001 C 0 0 .012000002 0 .030000002 0 L .41700004 0 C .585 0 .714 .115 .714 .21400002 C .714 .28500004 .649 .34600003 .543 .35700003 C .66400006 .379 .765 .455 .765 .541 C .765 .61700007 .688 .683 .558 .683 L .194 .683 C .17500001 .683 .162 .683 .162 .661 C .162 .647 .174 .647 .194 .647 C .19500003 .647 .21400002 .647 .23200003 .64500007 C .25300003 .643 .25500003 .64100006 .25500003 .63100007 C .25500003 .629 .25500003 .624 .25100003 .609 L .11800001 .078 M .27800004 .36900003 L .33900003 .61300006 C .34700004 .64400008 .34800003 .647 .39000003 .647 L .542 .647 C .644 .647 .667 .58000007 .667 .54200008 C .667 .46100004 .576 .36900003 .442 .36900003 L .27800004 .36900003 M .23000002 .036000004 C .19900003 .036000004 .19800002 .037 .19800002 .046000005 C .19800002 .047000003 .19800002 .052 .20200002 .067 L .27100004 .34100003 L .483 .34100003 C .577 .34100003 .61300006 .279 .61300006 .22100002 C .61300006 .12200001 .512 .036000004 .39100004 .036000004 L .23000002 .036000004 Z "/>
</symbol>
<use xlink:href="#font_1_1" transform="matrix(14.528749,0,0,-14.528749,795.8294,190.0965)" fill="#ff0000"/>
<path transform="matrix(2.0833333,0,0,-2.0833333,598.0062,184.07152)" stroke-width=".79701" stroke-linecap="butt" stroke-miterlimit="10" stroke-linejoin="miter" fill="none" stroke="#ff0000" d="M 0 7.28593 L 0 84.24341 "/>
<path transform="matrix(0,-2.0833333,-2.0833333,-0,598.0062,7.734182)" stroke-width=".79701" stroke-linecap="round" stroke-linejoin="round" fill="none" stroke="#ff0000" d="M -2.55046 3.11095 C -2.0845 1.24435 -1.04614 .36295 0 0 C -1.04614 -.36295 -2.0845 -1.24435 -2.55046 -3.11095 "/>
<symbol id="font_0_2">
<path d="M .45700003 .586 C .461 .6 .461 .602 .461 .609 C .461 .62700006 .447 .63600006 .432 .63600006 C .42200003 .63600006 .40600003 .63 .397 .615 C .395 .61 .387 .579 .38300003 .561 C .37600003 .535 .36900003 .508 .363 .48100005 L .318 .301 C .314 .286 .271 .21600002 .20500002 .21600002 C .15400002 .21600002 .143 .26000003 .143 .29700003 C .143 .34300003 .16000001 .40500004 .194 .49300004 C .21000001 .53400006 .21400002 .545 .21400002 .56500008 C .21400002 .61 .18200001 .6470001 .13200002 .6470001 C .037 .6470001 0 .50200006 0 .49300004 C 0 .48300005 .01 .48300005 .012 .48300005 C .022000002 .48300005 .023 .485 .028000003 .50100007 C .055000009 .595 .095000009 .625 .12900001 .625 C .13700001 .625 .15400002 .625 .15400002 .59300008 C .15400002 .568 .14400001 .54200008 .13700001 .523 C .097 .41700004 .079 .36 .079 .31300003 C .079 .224 .142 .194 .201 .194 C .24000003 .194 .274 .21100001 .30200003 .23900002 C .289 .187 .277 .13800001 .237 .08500001 C .21100001 .051 .17300001 .022 .127 .022 C .113000009 .022 .068 .025000006 .051000008 .06400001 C .067 .06400001 .080000009 .06400001 .094000007 .076000008 C .104 .08500001 .11400001 .098000008 .11400001 .117000009 C .11400001 .148 .087000008 .15200001 .07700001 .15200001 C .054000006 .15200001 .021 .136 .021 .087000008 C .021 .037 .065000008 0 .127 0 C .23 0 .333 .091000009 .361 .20400001 L .45700003 .586 Z "/>
</symbol>
<use xlink:href="#font_0_2" transform="matrix(20.755415,0,0,-20.755415,586.37698,-.6215434)" fill="#ff0000"/>
<use xlink:href="#font_1_1" transform="matrix(14.528749,0,0,-14.528749,596.99819,-1.7638855)" fill="#ff0000"/>
<path transform="matrix(2.0833333,0,0,-2.0833333,598.0062,184.07152)" stroke-width=".79701" stroke-linecap="butt" stroke-miterlimit="10" stroke-linejoin="miter" fill="none" stroke="#ff0000" d="M -1.59912 7.28593 L -3.6558 16.655 "/>
<path transform="matrix(-.44664584,-2.0347915,-2.0347915,.44664584,590.21206,148.56273)" stroke-width=".79701" stroke-linecap="round" stroke-linejoin="round" fill="none" stroke="#ff0000" d="M -2.55046 3.11095 C -2.0845 1.24435 -1.04614 .36295 0 0 C -1.04614 -.36295 -2.0845 -1.24435 -2.55046 -3.11095 "/>
<symbol id="font_0_3">
<path d="M .09 .094000007 C .14400001 .15200001 .17300001 .17700002 .209 .20800002 C .209 .20900002 .271 .26200003 .307 .298 C .402 .39100004 .424 .43900005 .424 .44300003 C .424 .45300005 .41500003 .45300005 .41300003 .45300005 C .40600003 .45300005 .403 .45100004 .398 .44200004 C .368 .39400003 .347 .37800003 .323 .37800003 C .299 .37800003 .287 .39300005 .272 .41000004 C .253 .43300004 .23600002 .45300005 .20300001 .45300005 C .128 .45300005 .082 .36 .082 .33900003 C .082 .33400003 .08500001 .328 .09400001 .328 C .103000018 .328 .105000007 .33300004 .10700001 .33900003 C .12600002 .38500003 .18400002 .38600005 .19200002 .38600005 C .21300002 .38600005 .23200001 .37900005 .255 .37100003 C .29500003 .35600005 .306 .35600005 .33200003 .35600005 C .296 .31300003 .21200003 .24100001 .19300002 .22500003 L .103000018 .14100002 C .035 .074 0 .017 0 .010000001 C 0 0 .010000002 0 .012000002 0 C .02 0 .022000004 .0020000004 .028 .013000001 C .051000004 .048 .081 .075 .113000009 .075 C .136 .075 .14600002 .06600001 .17100002 .037 C .18800001 .016 .20600002 0 .23500003 0 C .334 0 .39200003 .127 .39200003 .15400002 C .39200003 .15900001 .388 .16400002 .38 .16400002 C .37100003 .16400002 .36900003 .158 .366 .15100001 C .343 .086 .279 .067 .246 .067 C .22600003 .067 .20800002 .07300001 .187 .080000009 C .15300001 .093 .13800001 .097 .11700001 .097 C .11500001 .097 .09900001 .097 .09 .094000007 Z "/>
</symbol>
<use xlink:href="#font_0_3" transform="matrix(20.755415,0,0,-20.755415,598.6758,150.89359)" fill="#ff0000"/>
<use xlink:href="#font_1_1" transform="matrix(14.528749,0,0,-14.528749,608.4815,153.77779)" fill="#ff0000"/>
</g>
</svg>
