<?xml version="1.0" encoding="UTF-8" standalone="no"?>
<!DOCTYPE svg PUBLIC "-//W3C//DTD SVG 1.1//EN" "http://www.w3.org/Graphics/SVG/1.1/DTD/svg11.dtd">
<svg xmlns="http://www.w3.org/2000/svg" xmlns:xlink="http://www.w3.org/1999/xlink" version="1.1" width="1189.9944pt" height="355.1611pt" viewBox="0 0 1189.9944 355.1611">
<g enable-background="new">
<path transform="matrix(2.0833333,0,0,-2.0833333,567.0743,177.57987)" stroke-width=".3985" stroke-linecap="butt" stroke-miterlimit="10" stroke-linejoin="miter" fill="none" stroke="#000000" d="M -35.4335 -85.04045 L 35.43352 -85.04045 L 35.43352 85.04047 L -35.4335 85.04047 Z "/>
<symbol id="font_0_3">
<path d="M .19700001 .605 C .19700001 .64100006 .20000002 .652 .279 .652 L .305 .652 L .305 .683 C .27 .68 .19100002 .68 .15300001 .68 C .11400001 .68 .035 .68 0 .683 L 0 .652 L .026 .652 C .105000007 .652 .10800001 .64100006 .10800001 .605 L .10800001 .078 C .10800001 .042000005 .105000007 .031000002 .026 .031000002 L 0 .031000002 L 0 0 C .035 .003 .11400001 .003 .15200001 .003 C .19100002 .003 .27 .003 .305 0 L .305 .031000002 L .279 .031000002 C .20000002 .031000002 .19700001 .042000005 .19700001 .078 L .19700001 .605 Z "/>
</symbol>
<symbol id="font_0_4">
<path d="M .20400001 .661 C .19500001 .683 .19200002 .683 .16900002 .683 L 0 .683 L 0 .652 L .024000004 .652 C .10100001 .652 .103 .64100006 .103 .605 L .103 .105000007 C .103 .078 .103 .031000002 0 .031000002 L 0 0 C .035000005 .001 .08400001 .003 .11700001 .003 C .15 .003 .19900002 .001 .23400003 0 L .23400003 .031000002 C .13100001 .031000002 .13100001 .078 .13100001 .105000007 L .13100001 .64400008 L .13200002 .64400008 L .37300004 .022000002 C .37800003 .009000001 .38300003 0 .393 0 C .404 0 .40700004 .008 .411 .019000002 L .657 .652 L .65800008 .652 L .65800008 .078 C .65800008 .042000005 .656 .031000002 .57900008 .031000002 L .555 .031000002 L .555 0 C .592 .003 .66 .003 .69900009 .003 C .73800006 .003 .80500009 .003 .84200009 0 L .84200009 .031000002 L .818 .031000002 C .74100008 .031000002 .739 .042000005 .739 .078 L .739 .605 C .739 .64100006 .74100008 .652 .818 .652 L .84200009 .652 L .84200009 .683 L .67300006 .683 C .647 .683 .647 .68200007 .64000007 .66400006 L .42100004 .101 L .20400001 .661 Z "/>
</symbol>
<symbol id="font_0_5">
<path d="M .549 .25300003 C .549 .111 .45200003 .031000004 .35700003 .031000004 C .31000004 .031000004 .192 .056 .192 .246 L .192 .62700006 C .192 .66300007 .194 .674 .27100004 .674 L .29500003 .674 L .29500003 .70500007 C .26000003 .702 .18600002 .702 .148 .702 C .11000001 .702 .035000005 .702 0 .70500007 L 0 .674 L .024000004 .674 C .101 .674 .10300001 .66300007 .10300001 .62700006 L .10300001 .25000004 C .10300001 .109000008 .21900001 0 .35500003 0 C .47000004 0 .56000009 .093 .577 .207 C .58000007 .22700002 .58000007 .23600002 .58000007 .27600003 L .58000007 .596 C .58000007 .62900009 .58000007 .674 .683 .674 L .683 .70500007 C .647 .70400008 .59900006 .702 .56500008 .702 C .53000006 .702 .48200006 .70400008 .44600005 .70500007 L .44600005 .674 C .549 .674 .549 .62700006 .549 .6 L .549 .25300003 Z "/>
</symbol>
<use xlink:href="#font_0_3" transform="matrix(20.755415,0,0,-20.755415,546.61178,184.67153)"/>
<use xlink:href="#font_0_4" transform="matrix(20.755415,0,0,-20.755415,554.2912,184.67153)"/>
<use xlink:href="#font_0_5" transform="matrix(20.755415,0,0,-20.755415,573.24099,185.12815)"/>
<path transform="matrix(2.0833333,0,0,-2.0833333,567.0743,177.57987)" stroke-width=".3985" stroke-linecap="butt" stroke-miterlimit="10" stroke-linejoin="miter" fill="none" stroke="#000000" d="M -22.67754 21.26012 L 22.677529 21.26012 L 22.677529 63.78032 L -22.67754 63.78032 Z "/>
<symbol id="font_0_2">
<path d="M .53700008 .085 C .55 .063 .59000006 .023000002 .601 .023000002 C .61 .023000002 .61 .031000004 .61 .046000005 L .61 .22000002 C .61 .25900004 .614 .26400004 .679 .26400004 L .679 .29500003 C .642 .29400004 .587 .29200004 .55700007 .29200004 C .517 .29200004 .43200005 .29200004 .39600004 .29500003 L .39600004 .26400004 L .42800004 .26400004 C .518 .26400004 .521 .25300003 .521 .216 L .521 .15200001 C .521 .040000004 .39400003 .031000004 .36600004 .031000004 C .30100004 .031000004 .10300001 .06600001 .10300001 .36400003 C .10300001 .66300007 .3 .69600006 .36 .69600006 C .467 .69600006 .558 .60600009 .578 .45900003 C .58000007 .44500003 .58000007 .44200004 .59400007 .44200004 C .61 .44200004 .61 .44500003 .61 .46600006 L .61 .70300009 C .61 .72 .61 .72700008 .59900006 .72700008 C .595 .72700008 .591 .72700008 .58300009 .71500006 L .53300008 .64100006 C .50100007 .67300006 .44700004 .72700008 .34800003 .72700008 C .162 .72700008 0 .56900009 0 .36400003 C 0 .15900001 .16 0 .35000003 0 C .42300005 0 .503 .026000003 .53700008 .085 Z "/>
</symbol>
<symbol id="font_0_9">
<path d="M .39600004 .541 C .42200003 .60400006 .47300003 .605 .48900003 .605 L .48900003 .63600006 C .46600003 .63400009 .43700005 .633 .41400004 .633 C .39600004 .633 .34900005 .635 .32700003 .63600006 L .32700003 .605 C .358 .60400006 .374 .587 .374 .56200006 C .374 .55200007 .37300004 .5500001 .36800004 .538 L .26700003 .29200004 L .15600002 .561 C .15200001 .57100006 .15 .57500007 .15 .579 C .15 .605 .187 .605 .206 .605 L .206 .63600006 C .18 .635 .114 .633 .097 .633 C .07 .633 .030000002 .63400009 0 .63600006 L 0 .605 C .048 .605 .067 .605 .081 .57000008 L .231 .20500002 C .22600001 .19200002 .21200001 .15900001 .206 .14600002 C .18400002 .091000009 .15600002 .022 .09200001 .022 C .087000008 .022 .064 .022 .045 .040000008 C .076000008 .044 .08400001 .066 .08400001 .08200001 C .08400001 .10800001 .065000008 .12400001 .042000005 .12400001 C .022 .12400001 0 .11100001 0 .08100001 C 0 .036 .042000005 0 .09200001 0 C .155 0 .19600001 .05700001 .22 .11400001 L .39600004 .541 Z "/>
</symbol>
<symbol id="font_0_8">
<path d="M .13900002 .33200003 L .13900002 .44200004 L 0 .43100003 L 0 .4 C .07000001 .4 .07800001 .393 .07800001 .344 L .07800001 .076000008 C .07800001 .031000002 .067 .031000002 0 .031000002 L 0 0 C .039 .001 .08600001 .003 .11400001 .003 C .15400002 .003 .20100002 .003 .24100003 0 L .24100003 .031000002 L .22000002 .031000002 C .14600002 .031000002 .14400001 .042000005 .14400001 .078 L .14400001 .23200001 C .14400001 .33100004 .18600002 .42000003 .26200003 .42000003 C .26900003 .42000003 .27100004 .42000003 .27300004 .41900004 C .27 .418 .25000004 .40600003 .25000004 .38000003 C .25000004 .35200004 .27100004 .337 .293 .337 C .31100003 .337 .33600004 .349 .33600004 .381 C .33600004 .41300003 .305 .44200004 .26200003 .44200004 C .18900001 .44200004 .15300001 .37500004 .13900002 .33200003 Z "/>
</symbol>
<symbol id="font_0_7">
<path d="M .44300003 .22500003 C .44300003 .35300002 .34300003 .45900003 .222 .45900003 C .097 .45900003 0 .35000003 0 .22500003 C 0 .096 .104 0 .22100002 0 C .342 0 .44300003 .098000008 .44300003 .22500003 M .222 .025000003 C .17900002 .025000003 .135 .046 .10800001 .092 C .083000008 .136 .083000008 .19700001 .083000008 .23300003 C .083000008 .272 .083000008 .32600004 .10700001 .37000004 C .134 .41600005 .18100001 .43700005 .22100002 .43700005 C .26500003 .43700005 .30800004 .41500003 .33400003 .37200005 C .36 .32900004 .36 .27100004 .36 .23300003 C .36 .19700001 .36 .143 .33800004 .09900001 C .316 .054 .272 .025000003 .222 .025000003 Z "/>
</symbol>
<use xlink:href="#font_0_2" transform="matrix(20.755415,0,0,-20.755415,545.3637,94.52815)"/>
<use xlink:href="#font_0_9" transform="matrix(20.755415,0,0,-20.755415,560.88876,98.32639)"/>
<use xlink:href="#font_0_8" transform="matrix(20.755415,0,0,-20.755415,572.0344,94.07153)"/>
<use xlink:href="#font_0_7" transform="matrix(20.755415,0,0,-20.755415,580.17056,94.29984)"/>
<path transform="matrix(2.0833333,0,0,-2.0833333,567.0743,177.57987)" stroke-width=".3985" stroke-linecap="butt" stroke-miterlimit="10" stroke-linejoin="miter" fill="none" stroke="#000000" d="M -22.67754 -63.78032 L 22.677529 -63.78032 L 22.677529 -21.26012 L -22.67754 -21.26012 Z "/>
<symbol id="font_0_1">
<path d="M .36600004 .69600006 C .361 .70900008 .35900004 .716 .34300003 .716 C .32700003 .716 .324 .71000006 .319 .69600006 L .112 .098000008 C .094 .047000003 .054 .032 0 .031000002 L 0 0 C .023000002 .001 .066 .003 .102 .003 C .133 .003 .185 .001 .21700001 0 L .21700001 .031000002 C .16700001 .031000002 .142 .056 .142 .082 C .142 .085 .143 .095000009 .14400001 .097 L .19000001 .22800002 L .437 .22800002 L .49 .075 C .491 .071 .49300004 .065000008 .49300004 .061000006 C .49300004 .031000002 .437 .031000002 .41000004 .031000002 L .41000004 0 C .446 .003 .51600006 .003 .554 .003 C .597 .003 .643 .002 .685 0 L .685 .031000002 L .66700008 .031000002 C .60700008 .031000002 .593 .038000004 .582 .071 L .36600004 .69600006 M .31300003 .58400008 L .42600004 .259 L .201 .259 L .31300003 .58400008 Z "/>
</symbol>
<symbol id="font_0_6">
<path d="M .083000008 .22900002 C .083000008 .39200003 .16500002 .43400003 .218 .43400003 C .227 .43400003 .29 .43300004 .32500003 .397 C .284 .39400003 .278 .36400003 .278 .351 C .278 .32500003 .296 .305 .324 .305 C .35 .305 .37 .32200004 .37 .35200004 C .37 .42000003 .294 .45900003 .21700001 .45900003 C .092 .45900003 0 .351 0 .22700002 C 0 .09900001 .099 0 .215 0 C .349 0 .381 .120000008 .381 .13000001 C .381 .14000002 .37100003 .14000002 .368 .14000002 C .359 .14000002 .35700003 .136 .35500003 .13000001 C .326 .037 .261 .025000003 .224 .025000003 C .171 .025000003 .083000008 .068 .083000008 .22900002 Z "/>
</symbol>
<use xlink:href="#font_0_1" transform="matrix(20.755415,0,0,-20.755415,550.7322,273.25486)"/>
<use xlink:href="#font_0_6" transform="matrix(20.755415,0,0,-20.755415,566.34036,273.48316)"/>
<use xlink:href="#font_0_6" transform="matrix(20.755415,0,0,-20.755415,575.55569,273.48316)"/>
<path transform="matrix(2.0833333,0,0,-2.0833333,567.0743,177.57987)" stroke-width=".3985" stroke-linecap="butt" stroke-miterlimit="10" stroke-linejoin="miter" fill="none" stroke="#000000" d="M 78.39897 33.66473 L 91.68193 33.66473 L 91.68193 51.3757 L 78.39897 51.3757 Z "/>
<symbol id="font_1_1">
<path d="M .21600002 .231 C .20300001 .06700003 .167 .021999956 .11000001 .021999956 C .09700001 .021999956 .067 .024999977 .046000005 .042999984 C .07500001 .04700005 .08300001 .07000005 .08300001 .08399999 C .08300001 .113000039 .061000006 .12599999 .042000005 .12599999 C .022 .12599999 0 .113000039 0 .083000067 C 0 .034999968 .050000006 0 .11000001 0 C .20500002 0 .25300003 .08700001 .27500005 .17700005 C .28800003 .22900003 .32400004 .52000007 .33200003 .63100007 L .351 .88000008 C .36500005 1.064 .39900003 1.0890001 .444 1.0890001 C .45400007 1.0890001 .485 1.087 .507 1.0680001 C .47800005 1.064 .47000004 1.041 .47000004 1.0270001 C .47000004 .998 .49200005 .9850001 .51100006 .9850001 C .531 .9850001 .55300006 .998 .55300006 1.0280001 C .55300006 1.0760001 .503 1.1110001 .44300003 1.1110001 C .34800003 1.1110001 .30900003 1.014 .29200004 .9380001 C .28000004 .883 .24400002 .601 .23500002 .48000003 L .21600002 .231 Z "/>
</symbol>
<use xlink:href="#font_1_1" transform="matrix(20.755415,0,0,-20.755415,738.4845,100.52664)"/>
<path transform="matrix(2.0833333,0,0,-2.0833333,567.0743,177.57987)" stroke-width=".3985" stroke-linecap="butt" stroke-miterlimit="10" stroke-linejoin="miter" fill="none" stroke="#000000" d="M 77.95377 -49.6069 L 92.127147 -49.6069 L 92.127147 -35.43353 L 77.95377 -35.43353 Z "/>
<path transform="matrix(2.0833333,0,0,-2.0833333,567.0743,177.57987)" stroke-width=".3985" stroke-linecap="butt" stroke-miterlimit="10" stroke-linejoin="miter" fill="none" stroke="#000000" d="M 81.71988 -45.84079 L 88.36101 -45.84079 L 88.36101 -39.19966 L 81.71988 -39.19966 Z "/>
<path transform="matrix(2.0833333,0,0,-2.0833333,567.0743,177.57987)" stroke-width=".3985" stroke-linecap="butt" stroke-miterlimit="10" stroke-linejoin="miter" fill="none" stroke="#000000" d="M 81.52063 -39.0004 L 88.56027 -46.04004 "/>
<path transform="matrix(2.0833333,0,0,-2.0833333,567.0743,177.57987)" stroke-width=".3985" stroke-linecap="butt" stroke-miterlimit="10" stroke-linejoin="miter" fill="none" stroke="#000000" d="M 88.56027 -39.0004 L 81.52063 -46.04004 "/>
<path transform="matrix(2.0833333,0,0,-2.0833333,567.0743,177.57987)" stroke-width=".79701" stroke-linecap="butt" stroke-miterlimit="10" stroke-linejoin="miter" fill="none" stroke="#000000" d="M 22.87679 42.52022 L 76.7651 42.52022 "/>
<path transform="matrix(2.0833333,0,0,-2.0833333,727.0016,88.99607)" d="M 1.0361 0 C -.25902 .25902 -1.55415 .77707 -3.1083 1.68365 C -1.55415 .51805 -1.55415 -.51805 -3.1083 -1.68365 C -1.55415 -.77707 -.25902 -.25902 1.0361 0 Z "/>
<path transform="matrix(2.0833333,0,0,-2.0833333,727.0016,88.99607)" stroke-width=".79701" stroke-linecap="butt" stroke-linejoin="round" fill="none" stroke="#000000" d="M 1.0361 0 C -.25902 .25902 -1.55415 .77707 -3.1083 1.68365 C -1.55415 .51805 -1.55415 -.51805 -3.1083 -1.68365 C -1.55415 -.77707 -.25902 -.25902 1.0361 0 Z "/>
<symbol id="font_2_1">
<path d="M .34 .148 C .365 .194 .379 .24300002 .379 .26 C .379 .282 .367 .304 .341 .304 C .279 .304 .27199999 .19800002 .271 .171 C .27 .156 .269 .155 .268 .15400002 C .253 .13900002 .21000001 .11000001 .157 .11000001 C .091000009 .11000001 .053000004 .15300001 .053000004 .209 C .053000004 .24000001 .071 .315 .14 .409 C .149 .42000003 .15100001 .423 .15100001 .431 C .15100001 .44300003 .141 .45200003 .13000001 .45200003 C .120000008 .45200003 .11400001 .446 .113000009 .446 C .10800001 .441 0 .31 0 .16700001 C 0 .066 .051000008 0 .136 0 C .20700002 0 .263 .048000006 .285 .072000008 C .298 .042000005 .327 0 .393 0 C .47900004 0 .556 .063 .6 .131 C .661 .22600001 .67 .354 .67 .368 C .67 .445 .624 .461 .603 .461 C .565 .461 .527 .421 .527 .385 C .527 .359 .546 .347 .556 .33900003 C .582 .322 .60400006 .298 .60400006 .266 C .60400006 .2 .518 .11000001 .414 .11000001 C .385 .11000001 .358 .11800001 .34 .148 Z "/>
</symbol>
<use xlink:href="#font_2_1" transform="matrix(20.755415,0,0,-20.755415,653.98306,75.70007)"/>
<symbol id="font_3_1">
<path d="M .11800001 .078 C .109000008 .044000005 .107 .036000004 .030000002 .036000004 C .012999997 .036000004 0 .036000004 0 .015000001 C 0 0 .012000002 0 .030000002 0 L .41700004 0 C .585 0 .714 .115 .714 .21400002 C .714 .28500004 .649 .34600003 .543 .35700003 C .66400006 .379 .765 .455 .765 .541 C .765 .61700007 .688 .683 .558 .683 L .194 .683 C .17500001 .683 .162 .683 .162 .661 C .162 .647 .174 .647 .194 .647 C .19500003 .647 .21400002 .647 .23200003 .64500007 C .25300003 .643 .25500003 .64100006 .25500003 .63100007 C .25500003 .629 .25500003 .624 .25100003 .609 L .11800001 .078 M .27800004 .36900003 L .33900003 .61300006 C .34700004 .64400008 .34800003 .647 .39000003 .647 L .542 .647 C .644 .647 .667 .58000007 .667 .54200008 C .667 .46100004 .576 .36900003 .442 .36900003 L .27800004 .36900003 M .23000002 .036000004 C .19900003 .036000004 .19800002 .037 .19800002 .046000005 C .19800002 .047000003 .19800002 .052 .20200002 .067 L .27100004 .34100003 L .483 .34100003 C .577 .34100003 .61300006 .279 .61300006 .22100002 C .61300006 .12200001 .512 .036000004 .39100004 .036000004 L .23000002 .036000004 Z "/>
</symbol>
<symbol id="font_3_2">
<path d="M .349 .60400006 C .358 .638 .36 .647 .435 .647 C .46000005 .647 .472 .647 .472 .66800007 C .472 .67700007 .46500004 .683 .45600004 .683 C .435 .683 .41000004 .68 .389 .68 C .367 .68 .343 .679 .321 .679 L .252 .68 C .22999999 .68 .20500002 .683 .183 .683 C .17700002 .683 .162 .683 .162 .661 C .162 .647 .17300001 .647 .195 .647 C .19600001 .647 .21599999 .647 .23300001 .64500007 C .253 .643 .26 .642 .26 .63100007 C .26 .625 .25800003 .61800006 .256 .61 L .123 .079 C .115 .046000005 .11200001 .036000004 .037 .036000004 C .009999998 .036000004 0 .036000004 0 .014 C 0 .013 0 0 .016000003 0 C .046000005 0 .121 .004 .151 .004 L .22 .003 C .24200002 .003 .26700003 0 .289 0 C .29500003 0 .31 0 .31 .022000002 C .31 .036000004 .298 .036000004 .278 .036000004 C .276 .036000004 .255 .036000004 .23500002 .038000004 C .21200001 .040000004 .21200001 .044000005 .21200001 .053000004 C .21200001 .054 .21200001 .060000004 .21599999 .075 L .349 .60400006 Z "/>
</symbol>
<use xlink:href="#font_3_1" transform="matrix(14.528749,0,0,-14.528749,670.2413,68.00067)"/>
<use xlink:href="#font_3_2" transform="matrix(14.528749,0,0,-14.528749,669.35629,81.2507)"/>
<use xlink:href="#font_3_1" transform="matrix(14.528749,0,0,-14.528749,677.9573,81.2507)"/>
<path transform="matrix(2.0833333,0,0,-2.0833333,567.0743,177.57987)" stroke-width=".79701" stroke-linecap="butt" stroke-miterlimit="10" stroke-linejoin="miter" fill="none" stroke="#000000" d="M 22.87679 -42.52022 L 76.3199 -42.52022 "/>
<path transform="matrix(2.0833333,0,0,-2.0833333,726.0741,266.16368)" d="M 1.0361 0 C -.25902 .25902 -1.55415 .77707 -3.1083 1.68365 C -1.55415 .51805 -1.55415 -.51805 -3.1083 -1.68365 C -1.55415 -.77707 -.25902 -.25902 1.0361 0 Z "/>
<path transform="matrix(2.0833333,0,0,-2.0833333,726.0741,266.16368)" stroke-width=".79701" stroke-linecap="butt" stroke-linejoin="round" fill="none" stroke="#000000" d="M 1.0361 0 C -.25902 .25902 -1.55415 .77707 -3.1083 1.68365 C -1.55415 .51805 -1.55415 -.51805 -3.1083 -1.68365 C -1.55415 -.77707 -.25902 -.25902 1.0361 0 Z "/>
<symbol id="font_2_2">
<path d="M .47000004 .325 C .476 .35 .486 .39000003 .486 .39900003 C .486 .431 .45999999 .44300003 .439 .44300003 C .42000003 .44300003 .40000005 .433 .388 .418 C .37300004 .43400003 .34000004 .46 .282 .46 C .10800001 .46 0 .302 0 .165 C 0 .042000005 .09200001 0 .17500001 0 C .246 0 .29800005 .039 .314 .054000006 C .352 0 .41800005 0 .42900003 0 C .46600003 0 .495 .021000002 .51600006 .057000005 C .541 .097 .554 .15100001 .554 .156 C .554 .17 .53900006 .17 .53000006 .17 C .519 .17 .515 .17 .51 .165 C .508 .163 .508 .16100002 .50200006 .136 C .482 .056 .459 .036000004 .43400003 .036000004 C .42300005 .036000004 .411 .040000004 .411 .07300001 C .411 .09 .41500003 .106000009 .425 .14600002 C .43200005 .17400001 .44200004 .21400002 .44700004 .23600002 L .47000004 .325 M .30400003 .101 C .27500005 .067 .228 .036000004 .18 .036000004 C .118 .036000004 .113000009 .09 .113000009 .112 C .113000009 .164 .147 .287 .163 .326 C .194 .39900003 .24300002 .424 .28400005 .424 C .343 .424 .36700005 .377 .36700005 .366 L .365 .352 L .30400003 .101 Z "/>
</symbol>
<use xlink:href="#font_2_2" transform="matrix(20.755415,0,0,-20.755415,654.87918,252.86466)"/>
<use xlink:href="#font_3_1" transform="matrix(14.528749,0,0,-14.528749,668.12667,245.16736)"/>
<use xlink:href="#font_3_2" transform="matrix(14.528749,0,0,-14.528749,668.0104,258.41529)"/>
<use xlink:href="#font_3_1" transform="matrix(14.528749,0,0,-14.528749,676.6114,258.41529)"/>
</g>
</svg>
